<svg xmlns="http://www.w3.org/2000/svg" width="1200" height="680" viewBox="0 0 1200 680" >
    <defs>
    <linearGradient id="bg" x1="0" y1="0" x2="1" y2="1"><stop stop-color="#eef4f7"/><stop offset="1" stop-color="#dce9ef"/></linearGradient>
    <linearGradient id="metal" x1="0" y1="0" x2="1" y2="1"><stop stop-color="#f9fbfc"/><stop offset=".28" stop-color="#bcc9d2"/><stop offset=".55" stop-color="#748794"/><stop offset=".82" stop-color="#d7e0e5"/><stop offset="1" stop-color="#8ea0ab"/></linearGradient>
    <linearGradient id="accent" x1="0" y1="0" x2="1" y2="1"><stop stop-color="#3785a8"/><stop offset="1" stop-color="#3785a8" stop-opacity=".55"/></linearGradient>
    <pattern id="grid" width="42" height="42" patternUnits="userSpaceOnUse"><path d="M42 0H0V42" fill="none" stroke="#d07b3c" stroke-width="1" opacity=".22"/></pattern>
    <filter id="shadow" x="-30%" y="-30%" width="160%" height="180%"><feDropShadow dx="0" dy="16" stdDeviation="14" flood-color="#24313a" flood-opacity=".18"/></filter>
    <filter id="smallShadow" x="-30%" y="-30%" width="160%" height="180%"><feDropShadow dx="0" dy="7" stdDeviation="6" flood-color="#24313a" flood-opacity=".16"/></filter>
    <marker id="arrow" markerWidth="9" markerHeight="9" refX="7" refY="4.5" orient="auto" markerUnits="strokeWidth"><path d="M0 0L9 4.5L0 9z" fill="#3785a8"/></marker>
    <marker id="arrowStart" markerWidth="9" markerHeight="9" refX="2" refY="4.5" orient="auto" markerUnits="strokeWidth"><path d="M9 0L0 4.5L9 9z" fill="#3785a8"/></marker>
    </defs>
    <rect width="1200" height="680" fill="url(#bg)"/>
    <rect width="1200" height="680" fill="url(#grid)"/>
    <path d="M0 545C170 480 290 625 475 555S790 455 1200 545V680H0z" fill="#fff" opacity=".42"/>
    <circle cx="1020" cy="110" r="190" fill="#3785a8" opacity=".055"/>
    <circle cx="180" cy="580" r="150" fill="#3785a8" opacity=".035"/>
    <g fill="#3785a8" opacity=".12"><circle cx="92" cy="92" r="8"/><circle cx="112" cy="92" r="3"/><circle cx="1080" cy="580" r="8"/><circle cx="1058" cy="580" r="3"/></g>
    <g filter="url(#shadow)"><polygon points="354.1,220.0 342.1,234.2 346.8,252.2 329.8,259.7 326.2,277.9 307.6,277.4 296.5,292.2 280.0,283.7 263.5,292.2 252.4,277.4 233.8,277.9 230.2,259.7 213.2,252.2 217.9,234.2 205.9,220.0 217.9,205.8 213.2,187.8 230.2,180.3 233.8,162.1 252.4,162.6 263.5,147.8 280.0,156.3 296.5,147.8 307.6,162.6 326.2,162.1 329.8,180.3 346.8,187.8 342.1,205.8" fill="url(#metal)" stroke="#617481" stroke-width="3"/><circle cx="280" cy="220" r="37.699999999999996" fill="#f4f7f8" stroke="#e26d3d" stroke-width="10"/><circle cx="280" cy="220" r="14.3" fill="#627580"/></g><g filter="url(#shadow)"><circle cx="520" cy="220" r="58.5" fill="#303f49" stroke="#6c7e89" stroke-width="3.6"/><circle cx="520" cy="220" r="43.2" fill="#f0f3f4"/><circle cx="499.3" cy="206.5" r="15.3" fill="#d96b48" stroke="#f8fafb" stroke-width="3.6"/><circle cx="499.3" cy="206.5" r="5.8500000000000005" fill="#c88736"/><circle cx="539.35" cy="206.05" r="15.3" fill="#3d8fc4" stroke="#f8fafb" stroke-width="3.6"/><circle cx="539.35" cy="206.05" r="5.8500000000000005" fill="#c88736"/><circle cx="519.55" cy="242.05" r="15.3" fill="#e1b23a" stroke="#f8fafb" stroke-width="3.6"/><circle cx="519.55" cy="242.05" r="5.8500000000000005" fill="#c88736"/></g><g transform="translate(760 240) scale(0.43)" filter="url(#shadow)"><path d="M-45-170h90v75l120 235c20 40-8 75-53 75H-112c-45 0-73-35-53-75L-45-95z" fill="#fbfcfd" fill-opacity=".72" stroke="#667986" stroke-width="7"/><path d="M-128 80h256l36 70c18 35-8 58-48 58H-116c-40 0-66-23-48-58z" fill="#d65f86" opacity=".72"/><circle cx="-65" cy="62" r="15" fill="#8e5db7" opacity=".65"/><circle cx="55" cy="28" r="11" fill="#8e5db7" opacity=".65"/><circle cx="15" cy="115" r="9" fill="#fff" opacity=".7"/><path d="M-60-170h120" stroke="#8e5db7" stroke-width="12" stroke-linecap="round"/></g><g filter="url(#shadow)"><circle cx="1000" cy="220" r="70" fill="url(#metal)" stroke="#647682" stroke-width="4"/><circle cx="1000" cy="220" r="54.6" fill="#e8eef1" stroke="#3785a8" stroke-width="8"/><circle cx="1044.8" cy="220.0" r="6.0" fill="#f5f8f9" stroke="#667985" stroke-width="2"/><circle cx="1038.8" cy="242.4" r="6.0" fill="#f5f8f9" stroke="#667985" stroke-width="2"/><circle cx="1022.4" cy="258.8" r="6.0" fill="#f5f8f9" stroke="#667985" stroke-width="2"/><circle cx="1000.0" cy="264.8" r="6.0" fill="#f5f8f9" stroke="#667985" stroke-width="2"/><circle cx="977.6" cy="258.8" r="6.0" fill="#f5f8f9" stroke="#667985" stroke-width="2"/><circle cx="961.2" cy="242.4" r="6.0" fill="#f5f8f9" stroke="#667985" stroke-width="2"/><circle cx="955.2" cy="220.0" r="6.0" fill="#f5f8f9" stroke="#667985" stroke-width="2"/><circle cx="961.2" cy="197.6" r="6.0" fill="#f5f8f9" stroke="#667985" stroke-width="2"/><circle cx="977.6" cy="181.2" r="6.0" fill="#f5f8f9" stroke="#667985" stroke-width="2"/><circle cx="1000.0" cy="175.2" r="6.0" fill="#f5f8f9" stroke="#667985" stroke-width="2"/><circle cx="1022.4" cy="181.2" r="6.0" fill="#f5f8f9" stroke="#667985" stroke-width="2"/><circle cx="1038.8" cy="197.6" r="6.0" fill="#f5f8f9" stroke="#667985" stroke-width="2"/><circle cx="1000" cy="220" r="30.099999999999998" fill="#f7f9fa" stroke="#687a86" stroke-width="8"/></g><g filter="url(#shadow)"><rect x="315" y="360" width="108.0" height="166.5" rx="12.6" fill="#fbfcfd" stroke="#7c8b94" stroke-width="4"/><rect x="326.25" y="372.6" width="85.5" height="31.5" rx="5.4" fill="#263942"/><path d="M339.75 390.15h49.5" stroke="#d47b36" stroke-width="3.6" stroke-linecap="round"/><rect x="328.5" y="414.0" width="44" height="38" rx="8" fill="#e5ebee" stroke="#9ba9b1" stroke-width="2"/><rect x="356.4" y="414.0" width="44" height="38" rx="8" fill="#e5ebee" stroke="#9ba9b1" stroke-width="2"/><rect x="384.3" y="414.0" width="44" height="38" rx="8" fill="#e5ebee" stroke="#9ba9b1" stroke-width="2"/><rect x="328.5" y="438.75" width="44" height="38" rx="8" fill="#e5ebee" stroke="#9ba9b1" stroke-width="2"/><rect x="356.4" y="438.75" width="44" height="38" rx="8" fill="#e5ebee" stroke="#9ba9b1" stroke-width="2"/><rect x="384.3" y="438.75" width="44" height="38" rx="8" fill="#e5ebee" stroke="#9ba9b1" stroke-width="2"/><rect x="328.5" y="463.5" width="44" height="38" rx="8" fill="#e5ebee" stroke="#9ba9b1" stroke-width="2"/><rect x="356.4" y="463.5" width="44" height="38" rx="8" fill="#e5ebee" stroke="#9ba9b1" stroke-width="2"/><rect x="384.3" y="463.5" width="44" height="38" rx="8" fill="#e5ebee" stroke="#9ba9b1" stroke-width="2"/><rect x="328.5" y="488.25" width="44" height="38" rx="8" fill="#e5ebee" stroke="#9ba9b1" stroke-width="2"/><rect x="356.4" y="488.25" width="44" height="38" rx="8" fill="#e5ebee" stroke="#9ba9b1" stroke-width="2"/><rect x="384.3" y="488.25" width="44" height="38" rx="8" fill="#d47b36" stroke="#9ba9b1" stroke-width="2"/></g><g filter="url(#shadow)"><rect x="530" y="370" width="230" height="180" rx="26" fill="#f9fbfc" stroke="#687b88" stroke-width="4"/><rect x="530" y="370" width="230" height="62" rx="26" fill="#273744"/><circle cx="564" cy="401" r="8" fill="#e36d5b"/><circle cx="590" cy="401" r="8" fill="#e8b54d"/><circle cx="616" cy="401" r="8" fill="#55ad77"/><rect x="575" y="462" width="133.39999999999998" height="12" rx="6" fill="#718398" opacity="0.52"/><rect x="575" y="504" width="179.4" height="12" rx="6" fill="#5d66d6" opacity="0.9"/><rect x="575" y="546" width="98.89999999999999" height="12" rx="6" fill="#718398" opacity="0.52"/><rect x="575" y="588" width="156.4" height="12" rx="6" fill="#718398" opacity="0.52"/><rect x="575" y="630" width="119.60000000000001" height="12" rx="6" fill="#5d66d6" opacity="0.9"/><rect x="575" y="672" width="188.6" height="12" rx="6" fill="#718398" opacity="0.52"/><rect x="575" y="714" width="85.1" height="12" rx="6" fill="#718398" opacity="0.52"/></g><g filter="url(#shadow)"><rect x="820" y="400" width="179.4" height="112.7" rx="18" fill="#cfd2cf" stroke="#7f8985" stroke-width="2.3000000000000003"/><path d="M829.2 417.48h161.0" stroke="#eceeed" stroke-width="5.5200000000000005" opacity=".8"/><rect x="829.2" y="413.8" width="32.2" height="85.10000000000001" rx="8" fill="none" stroke="#8e5c49" stroke-width="3.22" opacity=".8"/><rect x="868.3" y="413.8" width="32.2" height="85.10000000000001" rx="8" fill="none" stroke="#8e5c49" stroke-width="3.22" opacity=".8"/><rect x="907.4" y="413.8" width="32.2" height="85.10000000000001" rx="8" fill="none" stroke="#8e5c49" stroke-width="3.22" opacity=".8"/><rect x="946.5" y="413.8" width="32.2" height="85.10000000000001" rx="8" fill="none" stroke="#8e5c49" stroke-width="3.22" opacity=".8"/><circle cx="845.3" cy="482.8" r="8.280000000000001" fill="#b86044" stroke="#783b2d" stroke-width="1.84"/><circle cx="886.7" cy="482.8" r="8.280000000000001" fill="#b86044" stroke="#783b2d" stroke-width="1.84"/><circle cx="928.1" cy="482.8" r="8.280000000000001" fill="#b86044" stroke="#783b2d" stroke-width="1.84"/><circle cx="969.5" cy="482.8" r="8.280000000000001" fill="#b86044" stroke="#783b2d" stroke-width="1.84"/></g>
    </svg>