<svg xmlns="http://www.w3.org/2000/svg" width="1200" height="680" viewBox="0 0 1200 680" >
    <defs>
    <linearGradient id="bg" x1="0" y1="0" x2="1" y2="1"><stop stop-color="#f2f7f6"/><stop offset="1" stop-color="#dfeeea"/></linearGradient>
    <linearGradient id="metal" x1="0" y1="0" x2="1" y2="1"><stop stop-color="#f9fbfc"/><stop offset=".28" stop-color="#bcc9d2"/><stop offset=".55" stop-color="#748794"/><stop offset=".82" stop-color="#d7e0e5"/><stop offset="1" stop-color="#8ea0ab"/></linearGradient>
    <linearGradient id="accent" x1="0" y1="0" x2="1" y2="1"><stop stop-color="#10a88f"/><stop offset="1" stop-color="#10a88f" stop-opacity=".55"/></linearGradient>
    <pattern id="grid" width="42" height="42" patternUnits="userSpaceOnUse"><path d="M42 0H0V42" fill="none" stroke="#77a7a0" stroke-width="1" opacity=".22"/></pattern>
    <filter id="shadow" x="-30%" y="-30%" width="160%" height="180%"><feDropShadow dx="0" dy="16" stdDeviation="14" flood-color="#24313a" flood-opacity=".18"/></filter>
    <filter id="smallShadow" x="-30%" y="-30%" width="160%" height="180%"><feDropShadow dx="0" dy="7" stdDeviation="6" flood-color="#24313a" flood-opacity=".16"/></filter>
    <marker id="arrow" markerWidth="9" markerHeight="9" refX="7" refY="4.5" orient="auto" markerUnits="strokeWidth"><path d="M0 0L9 4.5L0 9z" fill="#10a88f"/></marker>
    <marker id="arrowStart" markerWidth="9" markerHeight="9" refX="2" refY="4.5" orient="auto" markerUnits="strokeWidth"><path d="M9 0L0 4.5L9 9z" fill="#10a88f"/></marker>
    </defs>
    <rect width="1200" height="680" fill="url(#bg)"/>
    <rect width="1200" height="680" fill="url(#grid)"/>
    <path d="M0 545C170 480 290 625 475 555S790 455 1200 545V680H0z" fill="#fff" opacity=".42"/>
    <circle cx="1020" cy="110" r="190" fill="#10a88f" opacity=".055"/>
    <circle cx="180" cy="580" r="150" fill="#10a88f" opacity=".035"/>
    <g fill="#10a88f" opacity=".10"><rect x="70" y="70" width="180" height="14" rx="7"/><rect x="70" y="94" width="105" height="8" rx="4"/><rect x="950" y="580" width="180" height="14" rx="7"/></g>
    <g filter="url(#shadow)"><rect x="235" y="220" width="262.5" height="157.5" rx="28" fill="#fbfcfd" stroke="#697c87" stroke-width="5"/><rect x="676.0" y="304.0" width="262.5" height="157.5" rx="28" fill="#fbfcfd" stroke="#697c87" stroke-width="5"/><path d="M497.5 288.25C571.0 241.0 602.5 241.0 676.0 304.0" fill="none" stroke="#10a88f" stroke-width="13" marker-end="url(#arrow)"/><path d="M676.0 435.25C602.5 498.25 571.0 498.25 497.5 372.25" fill="none" stroke="#6d8291" stroke-width="10" marker-end="url(#arrow)"/><path d="M292.75 298.75h147.0" stroke="#10a88f" stroke-width="15" stroke-linecap="round"/><circle cx="807.25" cy="382.75" r="45" fill="none" stroke="#10a88f" stroke-width="12"/><path d="M807.25 335.5v90M760.0 382.75h90" stroke="#10a88f" stroke-width="8"/></g><g filter="url(#shadow)"><rect x="820" y="180" width="172.79999999999998" height="266.4" rx="20.16" fill="#fbfcfd" stroke="#7c8b94" stroke-width="4"/><rect x="838.0" y="200.16" width="136.79999999999998" height="50.4" rx="8.64" fill="#263942"/><path d="M859.6 228.24h79.2" stroke="#10a88f" stroke-width="5.76" stroke-linecap="round"/><rect x="841.6" y="266.4" width="44" height="38" rx="8" fill="#e5ebee" stroke="#9ba9b1" stroke-width="2"/><rect x="886.24" y="266.4" width="44" height="38" rx="8" fill="#e5ebee" stroke="#9ba9b1" stroke-width="2"/><rect x="930.88" y="266.4" width="44" height="38" rx="8" fill="#e5ebee" stroke="#9ba9b1" stroke-width="2"/><rect x="841.6" y="306.0" width="44" height="38" rx="8" fill="#e5ebee" stroke="#9ba9b1" stroke-width="2"/><rect x="886.24" y="306.0" width="44" height="38" rx="8" fill="#e5ebee" stroke="#9ba9b1" stroke-width="2"/><rect x="930.88" y="306.0" width="44" height="38" rx="8" fill="#e5ebee" stroke="#9ba9b1" stroke-width="2"/><rect x="841.6" y="345.6" width="44" height="38" rx="8" fill="#e5ebee" stroke="#9ba9b1" stroke-width="2"/><rect x="886.24" y="345.6" width="44" height="38" rx="8" fill="#e5ebee" stroke="#9ba9b1" stroke-width="2"/><rect x="930.88" y="345.6" width="44" height="38" rx="8" fill="#e5ebee" stroke="#9ba9b1" stroke-width="2"/><rect x="841.6" y="385.2" width="44" height="38" rx="8" fill="#e5ebee" stroke="#9ba9b1" stroke-width="2"/><rect x="886.24" y="385.2" width="44" height="38" rx="8" fill="#e5ebee" stroke="#9ba9b1" stroke-width="2"/><rect x="930.88" y="385.2" width="44" height="38" rx="8" fill="#10a88f" stroke="#9ba9b1" stroke-width="2"/></g>
    </svg>