<svg xmlns="http://www.w3.org/2000/svg" width="1200" height="680" viewBox="0 0 1200 680" >
    <defs>
    <linearGradient id="bg" x1="0" y1="0" x2="1" y2="1"><stop stop-color="#f5f3ef"/><stop offset="1" stop-color="#e9e3d8"/></linearGradient>
    <linearGradient id="metal" x1="0" y1="0" x2="1" y2="1"><stop stop-color="#f9fbfc"/><stop offset=".28" stop-color="#bcc9d2"/><stop offset=".55" stop-color="#748794"/><stop offset=".82" stop-color="#d7e0e5"/><stop offset="1" stop-color="#8ea0ab"/></linearGradient>
    <linearGradient id="accent" x1="0" y1="0" x2="1" y2="1"><stop stop-color="#d47b36"/><stop offset="1" stop-color="#d47b36" stop-opacity=".55"/></linearGradient>
    <pattern id="grid" width="42" height="42" patternUnits="userSpaceOnUse"><path d="M42 0H0V42" fill="none" stroke="#8394a0" stroke-width="1" opacity=".22"/></pattern>
    <filter id="shadow" x="-30%" y="-30%" width="160%" height="180%"><feDropShadow dx="0" dy="16" stdDeviation="14" flood-color="#24313a" flood-opacity=".18"/></filter>
    <filter id="smallShadow" x="-30%" y="-30%" width="160%" height="180%"><feDropShadow dx="0" dy="7" stdDeviation="6" flood-color="#24313a" flood-opacity=".16"/></filter>
    <marker id="arrow" markerWidth="9" markerHeight="9" refX="7" refY="4.5" orient="auto" markerUnits="strokeWidth"><path d="M0 0L9 4.5L0 9z" fill="#d47b36"/></marker>
    <marker id="arrowStart" markerWidth="9" markerHeight="9" refX="2" refY="4.5" orient="auto" markerUnits="strokeWidth"><path d="M9 0L0 4.5L9 9z" fill="#d47b36"/></marker>
    </defs>
    <rect width="1200" height="680" fill="url(#bg)"/>
    <rect width="1200" height="680" fill="url(#grid)"/>
    <path d="M0 545C170 480 290 625 475 555S790 455 1200 545V680H0z" fill="#fff" opacity=".42"/>
    <circle cx="1020" cy="110" r="190" fill="#d47b36" opacity=".055"/>
    <circle cx="180" cy="580" r="150" fill="#d47b36" opacity=".035"/>
    <g fill="#d47b36" opacity=".12"><circle cx="92" cy="92" r="8"/><circle cx="112" cy="92" r="3"/><circle cx="1080" cy="580" r="8"/><circle cx="1058" cy="580" r="3"/></g>
    <g filter="url(#shadow)"><rect x="610" y="145" width="252.0" height="388.5" rx="29.400000000000002" fill="#fbfcfd" stroke="#7c8b94" stroke-width="4"/><rect x="636.25" y="174.4" width="199.5" height="73.5" rx="12.600000000000001" fill="#263942"/><path d="M667.75 215.35000000000002h115.5" stroke="#d47b36" stroke-width="8.4" stroke-linecap="round"/><rect x="641.5" y="271.0" width="44" height="38" rx="8" fill="#e5ebee" stroke="#9ba9b1" stroke-width="2"/><rect x="706.6" y="271.0" width="44" height="38" rx="8" fill="#e5ebee" stroke="#9ba9b1" stroke-width="2"/><rect x="771.7" y="271.0" width="44" height="38" rx="8" fill="#e5ebee" stroke="#9ba9b1" stroke-width="2"/><rect x="641.5" y="328.75" width="44" height="38" rx="8" fill="#e5ebee" stroke="#9ba9b1" stroke-width="2"/><rect x="706.6" y="328.75" width="44" height="38" rx="8" fill="#e5ebee" stroke="#9ba9b1" stroke-width="2"/><rect x="771.7" y="328.75" width="44" height="38" rx="8" fill="#e5ebee" stroke="#9ba9b1" stroke-width="2"/><rect x="641.5" y="386.5" width="44" height="38" rx="8" fill="#e5ebee" stroke="#9ba9b1" stroke-width="2"/><rect x="706.6" y="386.5" width="44" height="38" rx="8" fill="#e5ebee" stroke="#9ba9b1" stroke-width="2"/><rect x="771.7" y="386.5" width="44" height="38" rx="8" fill="#e5ebee" stroke="#9ba9b1" stroke-width="2"/><rect x="641.5" y="444.25" width="44" height="38" rx="8" fill="#e5ebee" stroke="#9ba9b1" stroke-width="2"/><rect x="706.6" y="444.25" width="44" height="38" rx="8" fill="#e5ebee" stroke="#9ba9b1" stroke-width="2"/><rect x="771.7" y="444.25" width="44" height="38" rx="8" fill="#d47b36" stroke="#9ba9b1" stroke-width="2"/></g><g filter="url(#smallShadow)"><circle cx="350" cy="360" r="135" fill="#fbfcfd" stroke="#6b7e89" stroke-width="6"/><path d="M350 360l70-75" stroke="#d47b36" stroke-width="13" stroke-linecap="round"/><circle cx="350" cy="360" r="14" fill="#d47b36"/><path d="M350 225v25M350 470v25M215 360h25M460 360h25" stroke="#6b7e89" stroke-width="7"/></g>
    </svg>