<svg xmlns="http://www.w3.org/2000/svg" width="1200" height="680" viewBox="0 0 1200 680" >
    <defs>
    <linearGradient id="bg" x1="0" y1="0" x2="1" y2="1"><stop stop-color="#f4f2eb"/><stop offset="1" stop-color="#eee6c9"/></linearGradient>
    <linearGradient id="metal" x1="0" y1="0" x2="1" y2="1"><stop stop-color="#f9fbfc"/><stop offset=".28" stop-color="#bcc9d2"/><stop offset=".55" stop-color="#748794"/><stop offset=".82" stop-color="#d7e0e5"/><stop offset="1" stop-color="#8ea0ab"/></linearGradient>
    <linearGradient id="accent" x1="0" y1="0" x2="1" y2="1"><stop stop-color="#e7a80c"/><stop offset="1" stop-color="#e7a80c" stop-opacity=".55"/></linearGradient>
    <pattern id="grid" width="42" height="42" patternUnits="userSpaceOnUse"><path d="M42 0H0V42" fill="none" stroke="#4f8dc0" stroke-width="1" opacity=".22"/></pattern>
    <filter id="shadow" x="-30%" y="-30%" width="160%" height="180%"><feDropShadow dx="0" dy="16" stdDeviation="14" flood-color="#24313a" flood-opacity=".18"/></filter>
    <filter id="smallShadow" x="-30%" y="-30%" width="160%" height="180%"><feDropShadow dx="0" dy="7" stdDeviation="6" flood-color="#24313a" flood-opacity=".16"/></filter>
    <marker id="arrow" markerWidth="9" markerHeight="9" refX="7" refY="4.5" orient="auto" markerUnits="strokeWidth"><path d="M0 0L9 4.5L0 9z" fill="#e7a80c"/></marker>
    <marker id="arrowStart" markerWidth="9" markerHeight="9" refX="2" refY="4.5" orient="auto" markerUnits="strokeWidth"><path d="M9 0L0 4.5L9 9z" fill="#e7a80c"/></marker>
    </defs>
    <rect width="1200" height="680" fill="url(#bg)"/>
    <rect width="1200" height="680" fill="url(#grid)"/>
    <path d="M0 545C170 480 290 625 475 555S790 455 1200 545V680H0z" fill="#fff" opacity=".42"/>
    <circle cx="1020" cy="110" r="190" fill="#e7a80c" opacity=".055"/>
    <circle cx="180" cy="580" r="150" fill="#e7a80c" opacity=".035"/>
    <g fill="#e7a80c" opacity=".12"><circle cx="92" cy="92" r="8"/><circle cx="112" cy="92" r="3"/><circle cx="1080" cy="580" r="8"/><circle cx="1058" cy="580" r="3"/></g>
    <g filter="url(#shadow)"><circle cx="720" cy="345" r="136.5" fill="#303f49" stroke="#6c7e89" stroke-width="8.4"/><circle cx="720" cy="345" r="100.80000000000001" fill="#f0f3f4"/><circle cx="671.7" cy="313.5" r="35.7" fill="#d96b48" stroke="#f8fafb" stroke-width="8.4"/><circle cx="671.7" cy="313.5" r="13.65" fill="#c88736"/><circle cx="765.15" cy="312.45" r="35.7" fill="#3d8fc4" stroke="#f8fafb" stroke-width="8.4"/><circle cx="765.15" cy="312.45" r="13.65" fill="#c88736"/><circle cx="718.95" cy="396.45" r="35.7" fill="#e1b23a" stroke="#f8fafb" stroke-width="8.4"/><circle cx="718.95" cy="396.45" r="13.65" fill="#c88736"/></g><g filter="url(#shadow)"><rect x="190" y="190" width="360" height="290" rx="26" fill="#f9fbfc" stroke="#687b88" stroke-width="4"/><rect x="190" y="190" width="360" height="62" rx="26" fill="#273744"/><circle cx="224" cy="221" r="8" fill="#e36d5b"/><circle cx="250" cy="221" r="8" fill="#e8b54d"/><circle cx="276" cy="221" r="8" fill="#55ad77"/><rect x="235" y="282" width="208.79999999999998" height="12" rx="6" fill="#718398" opacity="0.52"/><rect x="235" y="324" width="280.8" height="12" rx="6" fill="#e7a80c" opacity="0.9"/><rect x="235" y="366" width="154.8" height="12" rx="6" fill="#718398" opacity="0.52"/><rect x="235" y="408" width="244.8" height="12" rx="6" fill="#718398" opacity="0.52"/><rect x="235" y="450" width="187.20000000000002" height="12" rx="6" fill="#e7a80c" opacity="0.9"/><rect x="235" y="492" width="295.2" height="12" rx="6" fill="#718398" opacity="0.52"/><rect x="235" y="534" width="133.2" height="12" rx="6" fill="#718398" opacity="0.52"/></g><path d="M590 530L910 530" stroke="#e7a80c" stroke-width="3" marker-start="url(#arrowStart)" marker-end="url(#arrow)" fill="none"/><text x="750.0" y="518.0" fill="#e7a80c" font-family="Arial,sans-serif" font-size="22" font-weight="700" text-anchor="middle">16 mm²</text>
    </svg>