<svg xmlns="http://www.w3.org/2000/svg" width="1200" height="680" viewBox="0 0 1200 680" >
    <defs>
    <linearGradient id="bg" x1="0" y1="0" x2="1" y2="1"><stop stop-color="#f1f2f8"/><stop offset="1" stop-color="#dfe2f2"/></linearGradient>
    <linearGradient id="metal" x1="0" y1="0" x2="1" y2="1"><stop stop-color="#f9fbfc"/><stop offset=".28" stop-color="#bcc9d2"/><stop offset=".55" stop-color="#748794"/><stop offset=".82" stop-color="#d7e0e5"/><stop offset="1" stop-color="#8ea0ab"/></linearGradient>
    <linearGradient id="accent" x1="0" y1="0" x2="1" y2="1"><stop stop-color="#5d66d6"/><stop offset="1" stop-color="#5d66d6" stop-opacity=".55"/></linearGradient>
    <pattern id="grid" width="42" height="42" patternUnits="userSpaceOnUse"><path d="M42 0H0V42" fill="none" stroke="#7e99c7" stroke-width="1" opacity=".22"/></pattern>
    <filter id="shadow" x="-30%" y="-30%" width="160%" height="180%"><feDropShadow dx="0" dy="16" stdDeviation="14" flood-color="#24313a" flood-opacity=".18"/></filter>
    <filter id="smallShadow" x="-30%" y="-30%" width="160%" height="180%"><feDropShadow dx="0" dy="7" stdDeviation="6" flood-color="#24313a" flood-opacity=".16"/></filter>
    <marker id="arrow" markerWidth="9" markerHeight="9" refX="7" refY="4.5" orient="auto" markerUnits="strokeWidth"><path d="M0 0L9 4.5L0 9z" fill="#5d66d6"/></marker>
    <marker id="arrowStart" markerWidth="9" markerHeight="9" refX="2" refY="4.5" orient="auto" markerUnits="strokeWidth"><path d="M9 0L0 4.5L9 9z" fill="#5d66d6"/></marker>
    </defs>
    <rect width="1200" height="680" fill="url(#bg)"/>
    <rect width="1200" height="680" fill="url(#grid)"/>
    <path d="M0 545C170 480 290 625 475 555S790 455 1200 545V680H0z" fill="#fff" opacity=".42"/>
    <circle cx="1020" cy="110" r="190" fill="#5d66d6" opacity=".055"/>
    <circle cx="180" cy="580" r="150" fill="#5d66d6" opacity=".035"/>
    <g fill="#5d66d6" opacity=".10"><rect x="70" y="70" width="180" height="14" rx="7"/><rect x="70" y="94" width="105" height="8" rx="4"/><rect x="950" y="580" width="180" height="14" rx="7"/></g>
    <g filter="url(#shadow)"><rect x="470" y="150" width="610" height="390" rx="26" fill="#f9fbfc" stroke="#687b88" stroke-width="4"/><rect x="470" y="150" width="610" height="62" rx="26" fill="#273744"/><circle cx="504" cy="181" r="8" fill="#e36d5b"/><circle cx="530" cy="181" r="8" fill="#e8b54d"/><circle cx="556" cy="181" r="8" fill="#55ad77"/><rect x="515" y="242" width="353.79999999999995" height="12" rx="6" fill="#718398" opacity="0.52"/><rect x="515" y="284" width="475.8" height="12" rx="6" fill="#5d66d6" opacity="0.9"/><rect x="515" y="326" width="262.3" height="12" rx="6" fill="#718398" opacity="0.52"/><rect x="515" y="368" width="414.8" height="12" rx="6" fill="#718398" opacity="0.52"/><rect x="515" y="410" width="317.2" height="12" rx="6" fill="#5d66d6" opacity="0.9"/><rect x="515" y="452" width="500.2" height="12" rx="6" fill="#718398" opacity="0.52"/><rect x="515" y="494" width="225.7" height="12" rx="6" fill="#718398" opacity="0.52"/></g><g fill="#5d66d6" stroke="#fff" stroke-width="5" filter="url(#smallShadow)"><circle cx="250" cy="260" r="42"/><circle cx="315" cy="430" r="34"/><circle cx="225" cy="520" r="28"/></g><path d="M250 302l55 96M285 445l-45 50" stroke="#5d66d6" stroke-width="10"/>
    </svg>