<svg xmlns="http://www.w3.org/2000/svg" width="1200" height="680" viewBox="0 0 1200 680" >
    <defs>
    <linearGradient id="bg" x1="0" y1="0" x2="1" y2="1"><stop stop-color="#eef2f4"/><stop offset="1" stop-color="#dfe8ed"/></linearGradient>
    <linearGradient id="metal" x1="0" y1="0" x2="1" y2="1"><stop stop-color="#f9fbfc"/><stop offset=".28" stop-color="#bcc9d2"/><stop offset=".55" stop-color="#748794"/><stop offset=".82" stop-color="#d7e0e5"/><stop offset="1" stop-color="#8ea0ab"/></linearGradient>
    <linearGradient id="accent" x1="0" y1="0" x2="1" y2="1"><stop stop-color="#e26d3d"/><stop offset="1" stop-color="#e26d3d" stop-opacity=".55"/></linearGradient>
    <pattern id="grid" width="42" height="42" patternUnits="userSpaceOnUse"><path d="M42 0H0V42" fill="none" stroke="#6d8291" stroke-width="1" opacity=".22"/></pattern>
    <filter id="shadow" x="-30%" y="-30%" width="160%" height="180%"><feDropShadow dx="0" dy="16" stdDeviation="14" flood-color="#24313a" flood-opacity=".18"/></filter>
    <filter id="smallShadow" x="-30%" y="-30%" width="160%" height="180%"><feDropShadow dx="0" dy="7" stdDeviation="6" flood-color="#24313a" flood-opacity=".16"/></filter>
    <marker id="arrow" markerWidth="9" markerHeight="9" refX="7" refY="4.5" orient="auto" markerUnits="strokeWidth"><path d="M0 0L9 4.5L0 9z" fill="#e26d3d"/></marker>
    <marker id="arrowStart" markerWidth="9" markerHeight="9" refX="2" refY="4.5" orient="auto" markerUnits="strokeWidth"><path d="M9 0L0 4.5L9 9z" fill="#e26d3d"/></marker>
    </defs>
    <rect width="1200" height="680" fill="url(#bg)"/>
    <rect width="1200" height="680" fill="url(#grid)"/>
    <path d="M0 545C170 480 290 625 475 555S790 455 1200 545V680H0z" fill="#fff" opacity=".42"/>
    <circle cx="1020" cy="110" r="190" fill="#e26d3d" opacity=".055"/>
    <circle cx="180" cy="580" r="150" fill="#e26d3d" opacity=".035"/>
    <g fill="#e26d3d" opacity=".12"><circle cx="92" cy="92" r="8"/><circle cx="112" cy="92" r="3"/><circle cx="1080" cy="580" r="8"/><circle cx="1058" cy="580" r="3"/></g>
    <g filter="url(#shadow)"><polygon points="901.0,330.0 874.8,355.5 890.7,388.5 857.3,403.5 861.0,439.9 824.5,442.6 815.5,478.1 780.3,468.1 759.7,498.4 730.0,477.0 700.3,498.4 679.7,468.1 644.5,478.1 635.5,442.6 599.0,439.9 602.7,403.5 569.3,388.5 585.2,355.5 559.0,330.0 585.2,304.5 569.3,271.5 602.7,256.5 599.0,220.1 635.5,217.4 644.5,181.9 679.7,191.9 700.3,161.6 730.0,183.0 759.7,161.6 780.3,191.9 815.5,181.9 824.5,217.4 861.0,220.1 857.3,256.5 890.7,271.5 874.8,304.5" fill="url(#metal)" stroke="#617481" stroke-width="3"/><circle cx="730" cy="330" r="87.0" fill="#f4f7f8" stroke="#e26d3d" stroke-width="10"/><circle cx="730" cy="330" r="33.0" fill="#627580"/></g><g filter="url(#shadow)"><circle cx="965" cy="445" r="92" fill="url(#metal)" stroke="#647682" stroke-width="4"/><circle cx="965" cy="445" r="71.76" fill="#e8eef1" stroke="#e26d3d" stroke-width="8"/><circle cx="1023.9" cy="445.0" r="7.8" fill="#f5f8f9" stroke="#667985" stroke-width="2"/><circle cx="1016.0" cy="474.4" r="7.8" fill="#f5f8f9" stroke="#667985" stroke-width="2"/><circle cx="994.4" cy="496.0" r="7.8" fill="#f5f8f9" stroke="#667985" stroke-width="2"/><circle cx="965.0" cy="503.9" r="7.8" fill="#f5f8f9" stroke="#667985" stroke-width="2"/><circle cx="935.6" cy="496.0" r="7.8" fill="#f5f8f9" stroke="#667985" stroke-width="2"/><circle cx="914.0" cy="474.4" r="7.8" fill="#f5f8f9" stroke="#667985" stroke-width="2"/><circle cx="906.1" cy="445.0" r="7.8" fill="#f5f8f9" stroke="#667985" stroke-width="2"/><circle cx="914.0" cy="415.6" r="7.8" fill="#f5f8f9" stroke="#667985" stroke-width="2"/><circle cx="935.6" cy="394.0" r="7.8" fill="#f5f8f9" stroke="#667985" stroke-width="2"/><circle cx="965.0" cy="386.1" r="7.8" fill="#f5f8f9" stroke="#667985" stroke-width="2"/><circle cx="994.4" cy="394.0" r="7.8" fill="#f5f8f9" stroke="#667985" stroke-width="2"/><circle cx="1016.0" cy="415.6" r="7.8" fill="#f5f8f9" stroke="#667985" stroke-width="2"/><circle cx="965" cy="445" r="39.56" fill="#f7f9fa" stroke="#687a86" stroke-width="8"/></g><g transform="translate(330 280) rotate(-18) scale(0.9)" filter="url(#shadow)"><polygon points="-52,-30 0,-58 52,-30 52,30 0,58 -52,30" fill="url(#metal)" stroke="#617481" stroke-width="4"/><rect x="-21" y="52" width="42" height="190" rx="17" fill="url(#metal)" stroke="#657783" stroke-width="3"/><path d="M-20 92H20M-20 118H20M-20 144H20M-20 170H20M-20 196H20M-20 222H20" stroke="#e26d3d" stroke-width="5" opacity=".8"/></g>
    </svg>