<svg xmlns="http://www.w3.org/2000/svg" width="1200" height="680" viewBox="0 0 1200 680" >
    <defs>
    <linearGradient id="bg" x1="0" y1="0" x2="1" y2="1"><stop stop-color="#f5f1eb"/><stop offset="1" stop-color="#eadfd3"/></linearGradient>
    <linearGradient id="metal" x1="0" y1="0" x2="1" y2="1"><stop stop-color="#f9fbfc"/><stop offset=".28" stop-color="#bcc9d2"/><stop offset=".55" stop-color="#748794"/><stop offset=".82" stop-color="#d7e0e5"/><stop offset="1" stop-color="#8ea0ab"/></linearGradient>
    <linearGradient id="accent" x1="0" y1="0" x2="1" y2="1"><stop stop-color="#d46f45"/><stop offset="1" stop-color="#d46f45" stop-opacity=".55"/></linearGradient>
    <pattern id="grid" width="42" height="42" patternUnits="userSpaceOnUse"><path d="M42 0H0V42" fill="none" stroke="#7796af" stroke-width="1" opacity=".22"/></pattern>
    <filter id="shadow" x="-30%" y="-30%" width="160%" height="180%"><feDropShadow dx="0" dy="16" stdDeviation="14" flood-color="#24313a" flood-opacity=".18"/></filter>
    <filter id="smallShadow" x="-30%" y="-30%" width="160%" height="180%"><feDropShadow dx="0" dy="7" stdDeviation="6" flood-color="#24313a" flood-opacity=".16"/></filter>
    <marker id="arrow" markerWidth="9" markerHeight="9" refX="7" refY="4.5" orient="auto" markerUnits="strokeWidth"><path d="M0 0L9 4.5L0 9z" fill="#d46f45"/></marker>
    <marker id="arrowStart" markerWidth="9" markerHeight="9" refX="2" refY="4.5" orient="auto" markerUnits="strokeWidth"><path d="M9 0L0 4.5L9 9z" fill="#d46f45"/></marker>
    </defs>
    <rect width="1200" height="680" fill="url(#bg)"/>
    <rect width="1200" height="680" fill="url(#grid)"/>
    <path d="M0 545C170 480 290 625 475 555S790 455 1200 545V680H0z" fill="#fff" opacity=".42"/>
    <circle cx="1020" cy="110" r="190" fill="#d46f45" opacity=".055"/>
    <circle cx="180" cy="580" r="150" fill="#d46f45" opacity=".035"/>
    <g fill="#d46f45" opacity=".10"><rect x="70" y="70" width="180" height="14" rx="7"/><rect x="70" y="94" width="105" height="8" rx="4"/><rect x="950" y="580" width="180" height="14" rx="7"/></g>
    <g transform="translate(540 275) scale(0.95)" filter="url(#shadow)"><path d="M0 220V-80L120-145L240-80V220z" fill="#f7f8f8" stroke="#627784" stroke-width="5"/><path d="M240 220V-80L350-25V220z" fill="#dce5e9" stroke="#627784" stroke-width="5"/><path d="M0-80l120 70 120-70" fill="none" stroke="#d46f45" stroke-width="12"/><rect x="35" y="-30" width="48" height="42" rx="4" fill="#b7ccd6" stroke="#78909c" stroke-width="3"/><rect x="110" y="-30" width="48" height="42" rx="4" fill="#b7ccd6" stroke="#78909c" stroke-width="3"/><rect x="185" y="-30" width="48" height="42" rx="4" fill="#b7ccd6" stroke="#78909c" stroke-width="3"/><rect x="35" y="38" width="48" height="42" rx="4" fill="#b7ccd6" stroke="#78909c" stroke-width="3"/><rect x="110" y="38" width="48" height="42" rx="4" fill="#b7ccd6" stroke="#78909c" stroke-width="3"/><rect x="185" y="38" width="48" height="42" rx="4" fill="#b7ccd6" stroke="#78909c" stroke-width="3"/><rect x="35" y="106" width="48" height="42" rx="4" fill="#b7ccd6" stroke="#78909c" stroke-width="3"/><rect x="110" y="106" width="48" height="42" rx="4" fill="#b7ccd6" stroke="#78909c" stroke-width="3"/><rect x="185" y="106" width="48" height="42" rx="4" fill="#b7ccd6" stroke="#78909c" stroke-width="3"/><path d="M120-10V220" stroke="#81939d" stroke-width="5"/></g><g filter="url(#shadow)"><rect x="130" y="390" width="280.8" height="176.4" rx="18" fill="#cfd2cf" stroke="#7f8985" stroke-width="3.5999999999999996"/><path d="M144.4 417.36h252.0" stroke="#eceeed" stroke-width="8.64" opacity=".8"/><rect x="144.4" y="411.6" width="50.4" height="133.2" rx="8" fill="none" stroke="#8e5c49" stroke-width="5.04" opacity=".8"/><rect x="205.6" y="411.6" width="50.4" height="133.2" rx="8" fill="none" stroke="#8e5c49" stroke-width="5.04" opacity=".8"/><rect x="266.79999999999995" y="411.6" width="50.4" height="133.2" rx="8" fill="none" stroke="#8e5c49" stroke-width="5.04" opacity=".8"/><rect x="328.0" y="411.6" width="50.4" height="133.2" rx="8" fill="none" stroke="#8e5c49" stroke-width="5.04" opacity=".8"/><circle cx="169.6" cy="519.6" r="12.959999999999999" fill="#b86044" stroke="#783b2d" stroke-width="2.88"/><circle cx="234.39999999999998" cy="519.6" r="12.959999999999999" fill="#b86044" stroke="#783b2d" stroke-width="2.88"/><circle cx="299.2" cy="519.6" r="12.959999999999999" fill="#b86044" stroke="#783b2d" stroke-width="2.88"/><circle cx="364.0" cy="519.6" r="12.959999999999999" fill="#b86044" stroke="#783b2d" stroke-width="2.88"/></g>
    </svg>