<svg xmlns="http://www.w3.org/2000/svg" width="1200" height="680" viewBox="0 0 1200 680" >
    <defs>
    <linearGradient id="bg" x1="0" y1="0" x2="1" y2="1"><stop stop-color="#f1f5ef"/><stop offset="1" stop-color="#e1eadc"/></linearGradient>
    <linearGradient id="metal" x1="0" y1="0" x2="1" y2="1"><stop stop-color="#f9fbfc"/><stop offset=".28" stop-color="#bcc9d2"/><stop offset=".55" stop-color="#748794"/><stop offset=".82" stop-color="#d7e0e5"/><stop offset="1" stop-color="#8ea0ab"/></linearGradient>
    <linearGradient id="accent" x1="0" y1="0" x2="1" y2="1"><stop stop-color="#4f9d62"/><stop offset="1" stop-color="#4f9d62" stop-opacity=".55"/></linearGradient>
    <pattern id="grid" width="42" height="42" patternUnits="userSpaceOnUse"><path d="M42 0H0V42" fill="none" stroke="#d7a83e" stroke-width="1" opacity=".22"/></pattern>
    <filter id="shadow" x="-30%" y="-30%" width="160%" height="180%"><feDropShadow dx="0" dy="16" stdDeviation="14" flood-color="#24313a" flood-opacity=".18"/></filter>
    <filter id="smallShadow" x="-30%" y="-30%" width="160%" height="180%"><feDropShadow dx="0" dy="7" stdDeviation="6" flood-color="#24313a" flood-opacity=".16"/></filter>
    <marker id="arrow" markerWidth="9" markerHeight="9" refX="7" refY="4.5" orient="auto" markerUnits="strokeWidth"><path d="M0 0L9 4.5L0 9z" fill="#4f9d62"/></marker>
    <marker id="arrowStart" markerWidth="9" markerHeight="9" refX="2" refY="4.5" orient="auto" markerUnits="strokeWidth"><path d="M9 0L0 4.5L9 9z" fill="#4f9d62"/></marker>
    </defs>
    <rect width="1200" height="680" fill="url(#bg)"/>
    <rect width="1200" height="680" fill="url(#grid)"/>
    <path d="M0 545C170 480 290 625 475 555S790 455 1200 545V680H0z" fill="#fff" opacity=".42"/>
    <circle cx="1020" cy="110" r="190" fill="#4f9d62" opacity=".055"/>
    <circle cx="180" cy="580" r="150" fill="#4f9d62" opacity=".035"/>
    <g fill="#4f9d62" opacity=".12"><circle cx="92" cy="92" r="8"/><circle cx="112" cy="92" r="3"/><circle cx="1080" cy="580" r="8"/><circle cx="1058" cy="580" r="3"/></g>
    <g transform="skewX(-11)" filter="url(#shadow)"><rect x="210" y="265" width="349.6" height="193.20000000000002" rx="12" fill="#334b5a"/><rect x="220.0" y="275.0" width="62.56" height="51.52" fill="#507e9d" stroke="#d6e5ea" stroke-width="2.7600000000000002"/><rect x="288.08" y="275.0" width="62.56" height="51.52" fill="#507e9d" stroke="#d6e5ea" stroke-width="2.7600000000000002"/><rect x="356.15999999999997" y="275.0" width="62.56" height="51.52" fill="#507e9d" stroke="#d6e5ea" stroke-width="2.7600000000000002"/><rect x="424.24" y="275.0" width="62.56" height="51.52" fill="#507e9d" stroke="#d6e5ea" stroke-width="2.7600000000000002"/><rect x="492.32" y="275.0" width="62.56" height="51.52" fill="#507e9d" stroke="#d6e5ea" stroke-width="2.7600000000000002"/><rect x="220.0" y="332.04" width="62.56" height="51.52" fill="#507e9d" stroke="#d6e5ea" stroke-width="2.7600000000000002"/><rect x="288.08" y="332.04" width="62.56" height="51.52" fill="#507e9d" stroke="#d6e5ea" stroke-width="2.7600000000000002"/><rect x="356.15999999999997" y="332.04" width="62.56" height="51.52" fill="#507e9d" stroke="#d6e5ea" stroke-width="2.7600000000000002"/><rect x="424.24" y="332.04" width="62.56" height="51.52" fill="#507e9d" stroke="#d6e5ea" stroke-width="2.7600000000000002"/><rect x="492.32" y="332.04" width="62.56" height="51.52" fill="#507e9d" stroke="#d6e5ea" stroke-width="2.7600000000000002"/><rect x="220.0" y="389.08" width="62.56" height="51.52" fill="#507e9d" stroke="#d6e5ea" stroke-width="2.7600000000000002"/><rect x="288.08" y="389.08" width="62.56" height="51.52" fill="#507e9d" stroke="#d6e5ea" stroke-width="2.7600000000000002"/><rect x="356.15999999999997" y="389.08" width="62.56" height="51.52" fill="#507e9d" stroke="#d6e5ea" stroke-width="2.7600000000000002"/><rect x="424.24" y="389.08" width="62.56" height="51.52" fill="#507e9d" stroke="#d6e5ea" stroke-width="2.7600000000000002"/><rect x="492.32" y="389.08" width="62.56" height="51.52" fill="#507e9d" stroke="#d6e5ea" stroke-width="2.7600000000000002"/></g><path d="M371.8 468.20000000000005v100M284.4 560.2h210" stroke="#647984" stroke-width="11.040000000000001" stroke-linecap="round"/><circle cx="578.8" cy="238.2" r="66.24000000000001" fill="#efbe4a" opacity=".85"/><g stroke="#efbe4a" stroke-width="8" opacity=".7"><path d="M578.8 141.6v-40"/><path d="M578.8 334.8v40"/><path d="M482.2 238.2h-40"/><path d="M675.4000000000001 238.2h40"/></g><path d="M845 520C760 450 800 300 950 245c65 145-5 265-105 275z" fill="#5ea66d" opacity=".9" filter="url(#shadow)"/><path d="M850 500c40-85 55-130 98-205" stroke="#f5f7f3" stroke-width="10" fill="none"/>
    </svg>