<svg xmlns="http://www.w3.org/2000/svg" width="1200" height="680" viewBox="0 0 1200 680" >
    <defs>
    <linearGradient id="bg" x1="0" y1="0" x2="1" y2="1"><stop stop-color="#eef4f7"/><stop offset="1" stop-color="#dce9ef"/></linearGradient>
    <linearGradient id="metal" x1="0" y1="0" x2="1" y2="1"><stop stop-color="#f9fbfc"/><stop offset=".28" stop-color="#bcc9d2"/><stop offset=".55" stop-color="#748794"/><stop offset=".82" stop-color="#d7e0e5"/><stop offset="1" stop-color="#8ea0ab"/></linearGradient>
    <linearGradient id="accent" x1="0" y1="0" x2="1" y2="1"><stop stop-color="#3785a8"/><stop offset="1" stop-color="#3785a8" stop-opacity=".55"/></linearGradient>
    <pattern id="grid" width="42" height="42" patternUnits="userSpaceOnUse"><path d="M42 0H0V42" fill="none" stroke="#d07b3c" stroke-width="1" opacity=".22"/></pattern>
    <filter id="shadow" x="-30%" y="-30%" width="160%" height="180%"><feDropShadow dx="0" dy="16" stdDeviation="14" flood-color="#24313a" flood-opacity=".18"/></filter>
    <filter id="smallShadow" x="-30%" y="-30%" width="160%" height="180%"><feDropShadow dx="0" dy="7" stdDeviation="6" flood-color="#24313a" flood-opacity=".16"/></filter>
    <marker id="arrow" markerWidth="9" markerHeight="9" refX="7" refY="4.5" orient="auto" markerUnits="strokeWidth"><path d="M0 0L9 4.5L0 9z" fill="#3785a8"/></marker>
    <marker id="arrowStart" markerWidth="9" markerHeight="9" refX="2" refY="4.5" orient="auto" markerUnits="strokeWidth"><path d="M9 0L0 4.5L9 9z" fill="#3785a8"/></marker>
    </defs>
    <rect width="1200" height="680" fill="url(#bg)"/>
    <rect width="1200" height="680" fill="url(#grid)"/>
    <path d="M0 545C170 480 290 625 475 555S790 455 1200 545V680H0z" fill="#fff" opacity=".42"/>
    <circle cx="1020" cy="110" r="190" fill="#3785a8" opacity=".055"/>
    <circle cx="180" cy="580" r="150" fill="#3785a8" opacity=".035"/>
    <g fill="#3785a8" opacity=".10"><rect x="70" y="70" width="180" height="14" rx="7"/><rect x="70" y="94" width="105" height="8" rx="4"/><rect x="950" y="580" width="180" height="14" rx="7"/></g>
    <g transform="translate(700 345) scale(1.0)" filter="url(#shadow)"><rect x="-380" y="-230" width="760" height="460" rx="30" fill="#fbfcfd" stroke="#607582" stroke-width="6"/><rect x="-380" y="-230" width="160" height="460" rx="30" fill="#263944"/><rect x="-190" y="-195" width="250" height="115" rx="18" fill="#e6edf0"/><rect x="85" y="-195" width="255" height="115" rx="18" fill="#e9ecef"/><rect x="-190" y="-55" width="530" height="245" rx="18" fill="#eff3f5"/><path d="M-155 120C-80 50-30 100 40 20S170 120 305-10" fill="none" stroke="#3785a8" stroke-width="10"/><path d="M-330-155h70M-330-105h80M-330-55h62M-330-5h86M-330 45h72" stroke="#7f929c" stroke-width="12" stroke-linecap="round"/><circle cx="-325" cy="155" r="28" fill="#3785a8"/></g><g filter="url(#shadow)"><rect x="130" y="245" width="124.80000000000001" height="192.4" rx="14.56" fill="#fbfcfd" stroke="#7c8b94" stroke-width="4"/><rect x="143.0" y="259.56" width="98.8" height="36.4" rx="6.24" fill="#263942"/><path d="M158.6 279.84000000000003h57.2" stroke="#d47b36" stroke-width="4.16" stroke-linecap="round"/><rect x="145.6" y="307.4" width="44" height="38" rx="8" fill="#e5ebee" stroke="#9ba9b1" stroke-width="2"/><rect x="177.84" y="307.4" width="44" height="38" rx="8" fill="#e5ebee" stroke="#9ba9b1" stroke-width="2"/><rect x="210.07999999999998" y="307.4" width="44" height="38" rx="8" fill="#e5ebee" stroke="#9ba9b1" stroke-width="2"/><rect x="145.6" y="336.0" width="44" height="38" rx="8" fill="#e5ebee" stroke="#9ba9b1" stroke-width="2"/><rect x="177.84" y="336.0" width="44" height="38" rx="8" fill="#e5ebee" stroke="#9ba9b1" stroke-width="2"/><rect x="210.07999999999998" y="336.0" width="44" height="38" rx="8" fill="#e5ebee" stroke="#9ba9b1" stroke-width="2"/><rect x="145.6" y="364.6" width="44" height="38" rx="8" fill="#e5ebee" stroke="#9ba9b1" stroke-width="2"/><rect x="177.84" y="364.6" width="44" height="38" rx="8" fill="#e5ebee" stroke="#9ba9b1" stroke-width="2"/><rect x="210.07999999999998" y="364.6" width="44" height="38" rx="8" fill="#e5ebee" stroke="#9ba9b1" stroke-width="2"/><rect x="145.6" y="393.20000000000005" width="44" height="38" rx="8" fill="#e5ebee" stroke="#9ba9b1" stroke-width="2"/><rect x="177.84" y="393.20000000000005" width="44" height="38" rx="8" fill="#e5ebee" stroke="#9ba9b1" stroke-width="2"/><rect x="210.07999999999998" y="393.20000000000005" width="44" height="38" rx="8" fill="#d47b36" stroke="#9ba9b1" stroke-width="2"/></g><g filter="url(#smallShadow)"><g filter="url(#shadow)"><polygon points="352.1,520.0 338.8,535.7 344.0,555.6 325.2,564.0 321.2,584.2 300.6,583.6 288.3,600.0 270.0,590.6 251.7,600.0 239.4,583.6 218.8,584.2 214.8,564.0 196.0,555.6 201.2,535.7 187.9,520.0 201.2,504.3 196.0,484.4 214.8,476.0 218.8,455.8 239.4,456.4 251.7,440.0 270.0,449.4 288.3,440.0 300.6,456.4 321.2,455.8 325.2,476.0 344.0,484.4 338.8,504.3" fill="url(#metal)" stroke="#617481" stroke-width="3"/><circle cx="270" cy="520" r="41.76" fill="#f4f7f8" stroke="#e26d3d" stroke-width="10"/><circle cx="270" cy="520" r="15.84" fill="#627580"/></g></g>
    </svg>