<svg xmlns="http://www.w3.org/2000/svg" width="1200" height="680" viewBox="0 0 1200 680" >
    <defs>
    <linearGradient id="bg" x1="0" y1="0" x2="1" y2="1"><stop stop-color="#f1f2f8"/><stop offset="1" stop-color="#dfe2f2"/></linearGradient>
    <linearGradient id="metal" x1="0" y1="0" x2="1" y2="1"><stop stop-color="#f9fbfc"/><stop offset=".28" stop-color="#bcc9d2"/><stop offset=".55" stop-color="#748794"/><stop offset=".82" stop-color="#d7e0e5"/><stop offset="1" stop-color="#8ea0ab"/></linearGradient>
    <linearGradient id="accent" x1="0" y1="0" x2="1" y2="1"><stop stop-color="#5d66d6"/><stop offset="1" stop-color="#5d66d6" stop-opacity=".55"/></linearGradient>
    <pattern id="grid" width="42" height="42" patternUnits="userSpaceOnUse"><path d="M42 0H0V42" fill="none" stroke="#7e99c7" stroke-width="1" opacity=".22"/></pattern>
    <filter id="shadow" x="-30%" y="-30%" width="160%" height="180%"><feDropShadow dx="0" dy="16" stdDeviation="14" flood-color="#24313a" flood-opacity=".18"/></filter>
    <filter id="smallShadow" x="-30%" y="-30%" width="160%" height="180%"><feDropShadow dx="0" dy="7" stdDeviation="6" flood-color="#24313a" flood-opacity=".16"/></filter>
    <marker id="arrow" markerWidth="9" markerHeight="9" refX="7" refY="4.5" orient="auto" markerUnits="strokeWidth"><path d="M0 0L9 4.5L0 9z" fill="#5d66d6"/></marker>
    <marker id="arrowStart" markerWidth="9" markerHeight="9" refX="2" refY="4.5" orient="auto" markerUnits="strokeWidth"><path d="M9 0L0 4.5L9 9z" fill="#5d66d6"/></marker>
    </defs>
    <rect width="1200" height="680" fill="url(#bg)"/>
    <rect width="1200" height="680" fill="url(#grid)"/>
    <path d="M0 545C170 480 290 625 475 555S790 455 1200 545V680H0z" fill="#fff" opacity=".42"/>
    <circle cx="1020" cy="110" r="190" fill="#5d66d6" opacity=".055"/>
    <circle cx="180" cy="580" r="150" fill="#5d66d6" opacity=".035"/>
    <g fill="#5d66d6" opacity=".12"><circle cx="92" cy="92" r="8"/><circle cx="112" cy="92" r="3"/><circle cx="1080" cy="580" r="8"/><circle cx="1058" cy="580" r="3"/></g>
    <g filter="url(#smallShadow)"><rect x="240.0" y="135" width="220.0" height="390.0" rx="22.0" fill="#e7edef" stroke="#8a9aa3" stroke-width="4.0"/><rect x="260.0" y="155.0" width="105.0" height="12.0" rx="6" fill="#4f95bd"/><rect x="260.0" y="200.0" width="180.0" height="72.0" rx="14.0" fill="#fbfcfd" stroke="#aab7be" stroke-width="3.0"/><rect x="282.0" y="223.0" width="105.0" height="9.0" rx="4" fill="#718692" opacity=".75"/><circle cx="407.0" cy="237.0" r="12.0" fill="#4f95bd"/><rect x="260.0" y="295.0" width="180.0" height="72.0" rx="14.0" fill="#fbfcfd" stroke="#aab7be" stroke-width="3.0"/><rect x="282.0" y="318.0" width="105.0" height="9.0" rx="4" fill="#718692" opacity=".75"/><circle cx="407.0" cy="332.0" r="12.0" fill="#4f95bd"/><rect x="260.0" y="390.0" width="180.0" height="72.0" rx="14.0" fill="#fbfcfd" stroke="#aab7be" stroke-width="3.0"/><rect x="282.0" y="413.0" width="105.0" height="9.0" rx="4" fill="#718692" opacity=".75"/><circle cx="407.0" cy="427.0" r="12.0" fill="#4f95bd"/></g><g filter="url(#smallShadow)"><rect x="480.0" y="135" width="220.0" height="390.0" rx="22.0" fill="#e7edef" stroke="#8a9aa3" stroke-width="4.0"/><rect x="500.0" y="155.0" width="105.0" height="12.0" rx="6" fill="#d99047"/><rect x="500.0" y="200.0" width="180.0" height="72.0" rx="14.0" fill="#fbfcfd" stroke="#aab7be" stroke-width="3.0"/><rect x="522.0" y="223.0" width="105.0" height="9.0" rx="4" fill="#718692" opacity=".75"/><circle cx="647.0" cy="237.0" r="12.0" fill="#d99047"/><rect x="500.0" y="295.0" width="180.0" height="72.0" rx="14.0" fill="#fbfcfd" stroke="#aab7be" stroke-width="3.0"/><rect x="522.0" y="318.0" width="105.0" height="9.0" rx="4" fill="#718692" opacity=".75"/><circle cx="647.0" cy="332.0" r="12.0" fill="#d99047"/><rect x="500.0" y="390.0" width="180.0" height="72.0" rx="14.0" fill="#fbfcfd" stroke="#aab7be" stroke-width="3.0"/><rect x="522.0" y="413.0" width="105.0" height="9.0" rx="4" fill="#718692" opacity=".75"/><circle cx="647.0" cy="427.0" r="12.0" fill="#d99047"/></g><g filter="url(#smallShadow)"><rect x="720.0" y="135" width="220.0" height="390.0" rx="22.0" fill="#e7edef" stroke="#8a9aa3" stroke-width="4.0"/><rect x="740.0" y="155.0" width="105.0" height="12.0" rx="6" fill="#4ca678"/><rect x="740.0" y="200.0" width="180.0" height="72.0" rx="14.0" fill="#fbfcfd" stroke="#aab7be" stroke-width="3.0"/><rect x="762.0" y="223.0" width="105.0" height="9.0" rx="4" fill="#718692" opacity=".75"/><circle cx="887.0" cy="237.0" r="12.0" fill="#4ca678"/><rect x="740.0" y="295.0" width="180.0" height="72.0" rx="14.0" fill="#fbfcfd" stroke="#aab7be" stroke-width="3.0"/><rect x="762.0" y="318.0" width="105.0" height="9.0" rx="4" fill="#718692" opacity=".75"/><circle cx="887.0" cy="332.0" r="12.0" fill="#4ca678"/><rect x="740.0" y="390.0" width="180.0" height="72.0" rx="14.0" fill="#fbfcfd" stroke="#aab7be" stroke-width="3.0"/><rect x="762.0" y="413.0" width="105.0" height="9.0" rx="4" fill="#718692" opacity=".75"/><circle cx="887.0" cy="427.0" r="12.0" fill="#4ca678"/></g><path d="M380.0 565.0C510.0 620.0 650.0 620.0 790.0 565.0" fill="none" stroke="#5d66d6" stroke-width="8.0" stroke-dasharray="12 12"/><circle cx="995" cy="465" r="82" fill="#fbfcfd" stroke="#6d7f89" stroke-width="6" filter="url(#shadow)"/><path d="M955 468l28 30 55-72" fill="none" stroke="#4ca678" stroke-width="14" stroke-linecap="round" stroke-linejoin="round"/>
    </svg>