<svg xmlns="http://www.w3.org/2000/svg" width="1200" height="680" viewBox="0 0 1200 680" >
    <defs>
    <linearGradient id="bg" x1="0" y1="0" x2="1" y2="1"><stop stop-color="#f7f1ef"/><stop offset="1" stop-color="#eedfda"/></linearGradient>
    <linearGradient id="metal" x1="0" y1="0" x2="1" y2="1"><stop stop-color="#f9fbfc"/><stop offset=".28" stop-color="#bcc9d2"/><stop offset=".55" stop-color="#748794"/><stop offset=".82" stop-color="#d7e0e5"/><stop offset="1" stop-color="#8ea0ab"/></linearGradient>
    <linearGradient id="accent" x1="0" y1="0" x2="1" y2="1"><stop stop-color="#c95749"/><stop offset="1" stop-color="#c95749" stop-opacity=".55"/></linearGradient>
    <pattern id="grid" width="42" height="42" patternUnits="userSpaceOnUse"><path d="M42 0H0V42" fill="none" stroke="#7e96a3" stroke-width="1" opacity=".22"/></pattern>
    <filter id="shadow" x="-30%" y="-30%" width="160%" height="180%"><feDropShadow dx="0" dy="16" stdDeviation="14" flood-color="#24313a" flood-opacity=".18"/></filter>
    <filter id="smallShadow" x="-30%" y="-30%" width="160%" height="180%"><feDropShadow dx="0" dy="7" stdDeviation="6" flood-color="#24313a" flood-opacity=".16"/></filter>
    <marker id="arrow" markerWidth="9" markerHeight="9" refX="7" refY="4.5" orient="auto" markerUnits="strokeWidth"><path d="M0 0L9 4.5L0 9z" fill="#c95749"/></marker>
    <marker id="arrowStart" markerWidth="9" markerHeight="9" refX="2" refY="4.5" orient="auto" markerUnits="strokeWidth"><path d="M9 0L0 4.5L9 9z" fill="#c95749"/></marker>
    </defs>
    <rect width="1200" height="680" fill="url(#bg)"/>
    <rect width="1200" height="680" fill="url(#grid)"/>
    <path d="M0 545C170 480 290 625 475 555S790 455 1200 545V680H0z" fill="#fff" opacity=".42"/>
    <circle cx="1020" cy="110" r="190" fill="#c95749" opacity=".055"/>
    <circle cx="180" cy="580" r="150" fill="#c95749" opacity=".035"/>
    <g fill="#c95749" opacity=".12"><circle cx="92" cy="92" r="8"/><circle cx="112" cy="92" r="3"/><circle cx="1080" cy="580" r="8"/><circle cx="1058" cy="580" r="3"/></g>
    <g transform="translate(650 350) scale(1.12)" filter="url(#shadow)"><rect x="-280" y="-150" width="250" height="300" rx="10" fill="url(#metal)" stroke="#667986" stroke-width="5"/><rect x="30" y="-150" width="250" height="300" rx="10" fill="url(#metal)" stroke="#667986" stroke-width="5"/><path d="M-30-150Q0-105 30-150M-30-95Q0-50 30-95M-30-40Q0 5 30-40M-30 15Q0 60 30 15M-30 70Q0 115 30 70M-30 125Q0 170 30 125" fill="none" stroke="#c95749" stroke-width="18"/><path d="M0-225v70" stroke="#c95749" stroke-width="8" marker-end="url(#arrow)"/></g><path d="M250 155L520 155" stroke="#c95749" stroke-width="3" marker-start="url(#arrowStart)" marker-end="url(#arrow)" fill="none"/><text x="385.0" y="143.0" fill="#c95749" font-family="Arial,sans-serif" font-size="22" font-weight="700" text-anchor="middle">a</text>
    </svg>