<svg xmlns="http://www.w3.org/2000/svg" width="1200" height="680" viewBox="0 0 1200 680" >
    <defs>
    <linearGradient id="bg" x1="0" y1="0" x2="1" y2="1"><stop stop-color="#f4f2eb"/><stop offset="1" stop-color="#eee6c9"/></linearGradient>
    <linearGradient id="metal" x1="0" y1="0" x2="1" y2="1"><stop stop-color="#f9fbfc"/><stop offset=".28" stop-color="#bcc9d2"/><stop offset=".55" stop-color="#748794"/><stop offset=".82" stop-color="#d7e0e5"/><stop offset="1" stop-color="#8ea0ab"/></linearGradient>
    <linearGradient id="accent" x1="0" y1="0" x2="1" y2="1"><stop stop-color="#e7a80c"/><stop offset="1" stop-color="#e7a80c" stop-opacity=".55"/></linearGradient>
    <pattern id="grid" width="42" height="42" patternUnits="userSpaceOnUse"><path d="M42 0H0V42" fill="none" stroke="#4f8dc0" stroke-width="1" opacity=".22"/></pattern>
    <filter id="shadow" x="-30%" y="-30%" width="160%" height="180%"><feDropShadow dx="0" dy="16" stdDeviation="14" flood-color="#24313a" flood-opacity=".18"/></filter>
    <filter id="smallShadow" x="-30%" y="-30%" width="160%" height="180%"><feDropShadow dx="0" dy="7" stdDeviation="6" flood-color="#24313a" flood-opacity=".16"/></filter>
    <marker id="arrow" markerWidth="9" markerHeight="9" refX="7" refY="4.5" orient="auto" markerUnits="strokeWidth"><path d="M0 0L9 4.5L0 9z" fill="#e7a80c"/></marker>
    <marker id="arrowStart" markerWidth="9" markerHeight="9" refX="2" refY="4.5" orient="auto" markerUnits="strokeWidth"><path d="M9 0L0 4.5L9 9z" fill="#e7a80c"/></marker>
    </defs>
    <rect width="1200" height="680" fill="url(#bg)"/>
    <rect width="1200" height="680" fill="url(#grid)"/>
    <path d="M0 545C170 480 290 625 475 555S790 455 1200 545V680H0z" fill="#fff" opacity=".42"/>
    <circle cx="1020" cy="110" r="190" fill="#e7a80c" opacity=".055"/>
    <circle cx="180" cy="580" r="150" fill="#e7a80c" opacity=".035"/>
    <g fill="#e7a80c" opacity=".12"><circle cx="92" cy="92" r="8"/><circle cx="112" cy="92" r="3"/><circle cx="1080" cy="580" r="8"/><circle cx="1058" cy="580" r="3"/></g>
    <g filter="url(#shadow)"><circle cx="720" cy="345" r="156.0" fill="#303f49" stroke="#6c7e89" stroke-width="9.6"/><circle cx="720" cy="345" r="115.19999999999999" fill="#f0f3f4"/><circle cx="664.8" cy="309.0" r="40.8" fill="#d96b48" stroke="#f8fafb" stroke-width="9.6"/><circle cx="664.8" cy="309.0" r="15.6" fill="#c88736"/><circle cx="771.6" cy="307.8" r="40.8" fill="#3d8fc4" stroke="#f8fafb" stroke-width="9.6"/><circle cx="771.6" cy="307.8" r="15.6" fill="#c88736"/><circle cx="718.8" cy="403.8" r="40.8" fill="#e1b23a" stroke="#f8fafb" stroke-width="9.6"/><circle cx="718.8" cy="403.8" r="15.6" fill="#c88736"/></g><path d="M190 190L500 190" stroke="#e7a80c" stroke-width="3" marker-start="url(#arrowStart)" marker-end="url(#arrow)" fill="none"/><text x="345.0" y="178.0" fill="#e7a80c" font-family="Arial,sans-serif" font-size="22" font-weight="700" text-anchor="middle">A</text><path d="M210 440h250" stroke="#d1930a" stroke-width="9"/><path d="M210 485h180" stroke="#4f8dc0" stroke-width="9"/>
    </svg>