<svg xmlns="http://www.w3.org/2000/svg" width="1200" height="680" viewBox="0 0 1200 680" >
    <defs>
    <linearGradient id="bg" x1="0" y1="0" x2="1" y2="1"><stop stop-color="#f5f1eb"/><stop offset="1" stop-color="#eadfd3"/></linearGradient>
    <linearGradient id="metal" x1="0" y1="0" x2="1" y2="1"><stop stop-color="#f9fbfc"/><stop offset=".28" stop-color="#bcc9d2"/><stop offset=".55" stop-color="#748794"/><stop offset=".82" stop-color="#d7e0e5"/><stop offset="1" stop-color="#8ea0ab"/></linearGradient>
    <linearGradient id="accent" x1="0" y1="0" x2="1" y2="1"><stop stop-color="#d46f45"/><stop offset="1" stop-color="#d46f45" stop-opacity=".55"/></linearGradient>
    <pattern id="grid" width="42" height="42" patternUnits="userSpaceOnUse"><path d="M42 0H0V42" fill="none" stroke="#7796af" stroke-width="1" opacity=".22"/></pattern>
    <filter id="shadow" x="-30%" y="-30%" width="160%" height="180%"><feDropShadow dx="0" dy="16" stdDeviation="14" flood-color="#24313a" flood-opacity=".18"/></filter>
    <filter id="smallShadow" x="-30%" y="-30%" width="160%" height="180%"><feDropShadow dx="0" dy="7" stdDeviation="6" flood-color="#24313a" flood-opacity=".16"/></filter>
    <marker id="arrow" markerWidth="9" markerHeight="9" refX="7" refY="4.5" orient="auto" markerUnits="strokeWidth"><path d="M0 0L9 4.5L0 9z" fill="#d46f45"/></marker>
    <marker id="arrowStart" markerWidth="9" markerHeight="9" refX="2" refY="4.5" orient="auto" markerUnits="strokeWidth"><path d="M9 0L0 4.5L9 9z" fill="#d46f45"/></marker>
    </defs>
    <rect width="1200" height="680" fill="url(#bg)"/>
    <rect width="1200" height="680" fill="url(#grid)"/>
    <path d="M0 545C170 480 290 625 475 555S790 455 1200 545V680H0z" fill="#fff" opacity=".42"/>
    <circle cx="1020" cy="110" r="190" fill="#d46f45" opacity=".055"/>
    <circle cx="180" cy="580" r="150" fill="#d46f45" opacity=".035"/>
    <g fill="#d46f45" opacity=".12"><circle cx="92" cy="92" r="8"/><circle cx="112" cy="92" r="3"/><circle cx="1080" cy="580" r="8"/><circle cx="1058" cy="580" r="3"/></g>
    <g filter="url(#shadow)"><path d="M330.0 470.0h120.0v35.0h-120.0z" fill="#e2e8ea" stroke="#667986" stroke-width="4"/><path d="M400.0 435.0h120.0v35.0h-120.0z" fill="#e2e8ea" stroke="#667986" stroke-width="4"/><path d="M470.0 400.0h120.0v35.0h-120.0z" fill="#e2e8ea" stroke="#667986" stroke-width="4"/><path d="M540.0 365.0h120.0v35.0h-120.0z" fill="#e2e8ea" stroke="#667986" stroke-width="4"/><path d="M610.0 330.0h120.0v35.0h-120.0z" fill="#e2e8ea" stroke="#667986" stroke-width="4"/><path d="M680.0 295.0h120.0v35.0h-120.0z" fill="#e2e8ea" stroke="#667986" stroke-width="4"/><path d="M750.0 260.0h120.0v35.0h-120.0z" fill="#e2e8ea" stroke="#667986" stroke-width="4"/><path d="M320.0 505.0L815.0 255.0" stroke="#d46f45" stroke-width="10"/></g><path d="M300 170L760 170" stroke="#d46f45" stroke-width="3" marker-start="url(#arrowStart)" marker-end="url(#arrow)" fill="none"/><text x="530.0" y="158.0" fill="#d46f45" font-family="Arial,sans-serif" font-size="22" font-weight="700" text-anchor="middle">2h + b</text>
    </svg>