<svg xmlns="http://www.w3.org/2000/svg" width="1200" height="680" viewBox="0 0 1200 680" >
    <defs>
    <linearGradient id="bg" x1="0" y1="0" x2="1" y2="1"><stop stop-color="#f5f1f7"/><stop offset="1" stop-color="#eadff0"/></linearGradient>
    <linearGradient id="metal" x1="0" y1="0" x2="1" y2="1"><stop stop-color="#f9fbfc"/><stop offset=".28" stop-color="#bcc9d2"/><stop offset=".55" stop-color="#748794"/><stop offset=".82" stop-color="#d7e0e5"/><stop offset="1" stop-color="#8ea0ab"/></linearGradient>
    <linearGradient id="accent" x1="0" y1="0" x2="1" y2="1"><stop stop-color="#8e5db7"/><stop offset="1" stop-color="#8e5db7" stop-opacity=".55"/></linearGradient>
    <pattern id="grid" width="42" height="42" patternUnits="userSpaceOnUse"><path d="M42 0H0V42" fill="none" stroke="#d65f86" stroke-width="1" opacity=".22"/></pattern>
    <filter id="shadow" x="-30%" y="-30%" width="160%" height="180%"><feDropShadow dx="0" dy="16" stdDeviation="14" flood-color="#24313a" flood-opacity=".18"/></filter>
    <filter id="smallShadow" x="-30%" y="-30%" width="160%" height="180%"><feDropShadow dx="0" dy="7" stdDeviation="6" flood-color="#24313a" flood-opacity=".16"/></filter>
    <marker id="arrow" markerWidth="9" markerHeight="9" refX="7" refY="4.5" orient="auto" markerUnits="strokeWidth"><path d="M0 0L9 4.5L0 9z" fill="#8e5db7"/></marker>
    <marker id="arrowStart" markerWidth="9" markerHeight="9" refX="2" refY="4.5" orient="auto" markerUnits="strokeWidth"><path d="M9 0L0 4.5L9 9z" fill="#8e5db7"/></marker>
    </defs>
    <rect width="1200" height="680" fill="url(#bg)"/>
    <rect width="1200" height="680" fill="url(#grid)"/>
    <path d="M0 545C170 480 290 625 475 555S790 455 1200 545V680H0z" fill="#fff" opacity=".42"/>
    <circle cx="1020" cy="110" r="190" fill="#8e5db7" opacity=".055"/>
    <circle cx="180" cy="580" r="150" fill="#8e5db7" opacity=".035"/>
    <g fill="#8e5db7" opacity=".12"><circle cx="92" cy="92" r="8"/><circle cx="112" cy="92" r="3"/><circle cx="1080" cy="580" r="8"/><circle cx="1058" cy="580" r="3"/></g>
    <g transform="translate(690 340) scale(1.25)" filter="url(#shadow)"><path d="M-45-170h90v75l120 235c20 40-8 75-53 75H-112c-45 0-73-35-53-75L-45-95z" fill="#fbfcfd" fill-opacity=".72" stroke="#667986" stroke-width="7"/><path d="M-128 80h256l36 70c18 35-8 58-48 58H-116c-40 0-66-23-48-58z" fill="#d65f86" opacity=".72"/><circle cx="-65" cy="62" r="15" fill="#8e5db7" opacity=".65"/><circle cx="55" cy="28" r="11" fill="#8e5db7" opacity=".65"/><circle cx="15" cy="115" r="9" fill="#fff" opacity=".7"/><path d="M-60-170h120" stroke="#8e5db7" stroke-width="12" stroke-linecap="round"/></g><g stroke="#8e5db7" stroke-width="8" fill="#fbfcfd" filter="url(#smallShadow)"><circle cx="290" cy="260" r="42"/><circle cx="420" cy="190" r="34"/><circle cx="430" cy="355" r="48"/><path d="M328 238l60-32M328 280l58 50M420 224l8 83"/></g>
    </svg>