<svg xmlns="http://www.w3.org/2000/svg" width="1200" height="680" viewBox="0 0 1200 680" >
    <defs>
    <linearGradient id="bg" x1="0" y1="0" x2="1" y2="1"><stop stop-color="#f2f6f4"/><stop offset="1" stop-color="#dcece5"/></linearGradient>
    <linearGradient id="metal" x1="0" y1="0" x2="1" y2="1"><stop stop-color="#f9fbfc"/><stop offset=".28" stop-color="#bcc9d2"/><stop offset=".55" stop-color="#748794"/><stop offset=".82" stop-color="#d7e0e5"/><stop offset="1" stop-color="#8ea0ab"/></linearGradient>
    <linearGradient id="accent" x1="0" y1="0" x2="1" y2="1"><stop stop-color="#38a37c"/><stop offset="1" stop-color="#38a37c" stop-opacity=".55"/></linearGradient>
    <pattern id="grid" width="42" height="42" patternUnits="userSpaceOnUse"><path d="M42 0H0V42" fill="none" stroke="#d77b6e" stroke-width="1" opacity=".22"/></pattern>
    <filter id="shadow" x="-30%" y="-30%" width="160%" height="180%"><feDropShadow dx="0" dy="16" stdDeviation="14" flood-color="#24313a" flood-opacity=".18"/></filter>
    <filter id="smallShadow" x="-30%" y="-30%" width="160%" height="180%"><feDropShadow dx="0" dy="7" stdDeviation="6" flood-color="#24313a" flood-opacity=".16"/></filter>
    <marker id="arrow" markerWidth="9" markerHeight="9" refX="7" refY="4.5" orient="auto" markerUnits="strokeWidth"><path d="M0 0L9 4.5L0 9z" fill="#38a37c"/></marker>
    <marker id="arrowStart" markerWidth="9" markerHeight="9" refX="2" refY="4.5" orient="auto" markerUnits="strokeWidth"><path d="M9 0L0 4.5L9 9z" fill="#38a37c"/></marker>
    </defs>
    <rect width="1200" height="680" fill="url(#bg)"/>
    <rect width="1200" height="680" fill="url(#grid)"/>
    <path d="M0 545C170 480 290 625 475 555S790 455 1200 545V680H0z" fill="#fff" opacity=".42"/>
    <circle cx="1020" cy="110" r="190" fill="#38a37c" opacity=".055"/>
    <circle cx="180" cy="580" r="150" fill="#38a37c" opacity=".035"/>
    <g fill="#38a37c" opacity=".10"><rect x="70" y="70" width="180" height="14" rx="7"/><rect x="70" y="94" width="105" height="8" rx="4"/><rect x="950" y="580" width="180" height="14" rx="7"/></g>
    <g filter="url(#shadow)"><rect x="320" y="130" width="330.0" height="430.0" rx="38" fill="#fbfcfd" stroke="#697c87" stroke-width="5"/><circle cx="485.0" cy="240.0" r="55" fill="#dfe9e5" stroke="#38a37c" stroke-width="10"/><path d="M410.0 380.0Q485.0 305.0 560.0 380.0V480.0H410.0z" fill="#dfe9e5" stroke="#38a37c" stroke-width="10"/><rect x="385.0" y="495.0" width="200.0" height="28" rx="14" fill="#e7edef"/><rect x="385.0" y="495.0" width="125.0" height="28" rx="14" fill="#38a37c"/></g><path d="M740.0 160.0v380M710.0 160.0h60M710.0 540.0h60" stroke="#718692" stroke-width="9"/><path d="M710.0 210.0h45M710.0 270.0h45M710.0 330.0h45M710.0 390.0h45M710.0 450.0h45" stroke="#38a37c" stroke-width="7"/>
    </svg>