<svg xmlns="http://www.w3.org/2000/svg" width="1200" height="680" viewBox="0 0 1200 680" >
    <defs>
    <linearGradient id="bg" x1="0" y1="0" x2="1" y2="1"><stop stop-color="#eef2f4"/><stop offset="1" stop-color="#dfe8ed"/></linearGradient>
    <linearGradient id="metal" x1="0" y1="0" x2="1" y2="1"><stop stop-color="#f9fbfc"/><stop offset=".28" stop-color="#bcc9d2"/><stop offset=".55" stop-color="#748794"/><stop offset=".82" stop-color="#d7e0e5"/><stop offset="1" stop-color="#8ea0ab"/></linearGradient>
    <linearGradient id="accent" x1="0" y1="0" x2="1" y2="1"><stop stop-color="#e26d3d"/><stop offset="1" stop-color="#e26d3d" stop-opacity=".55"/></linearGradient>
    <pattern id="grid" width="42" height="42" patternUnits="userSpaceOnUse"><path d="M42 0H0V42" fill="none" stroke="#6d8291" stroke-width="1" opacity=".22"/></pattern>
    <filter id="shadow" x="-30%" y="-30%" width="160%" height="180%"><feDropShadow dx="0" dy="16" stdDeviation="14" flood-color="#24313a" flood-opacity=".18"/></filter>
    <filter id="smallShadow" x="-30%" y="-30%" width="160%" height="180%"><feDropShadow dx="0" dy="7" stdDeviation="6" flood-color="#24313a" flood-opacity=".16"/></filter>
    <marker id="arrow" markerWidth="9" markerHeight="9" refX="7" refY="4.5" orient="auto" markerUnits="strokeWidth"><path d="M0 0L9 4.5L0 9z" fill="#e26d3d"/></marker>
    <marker id="arrowStart" markerWidth="9" markerHeight="9" refX="2" refY="4.5" orient="auto" markerUnits="strokeWidth"><path d="M9 0L0 4.5L9 9z" fill="#e26d3d"/></marker>
    </defs>
    <rect width="1200" height="680" fill="url(#bg)"/>
    <rect width="1200" height="680" fill="url(#grid)"/>
    <path d="M0 545C170 480 290 625 475 555S790 455 1200 545V680H0z" fill="#fff" opacity=".42"/>
    <circle cx="1020" cy="110" r="190" fill="#e26d3d" opacity=".055"/>
    <circle cx="180" cy="580" r="150" fill="#e26d3d" opacity=".035"/>
    <g fill="#e26d3d" opacity=".10"><rect x="70" y="70" width="180" height="14" rx="7"/><rect x="70" y="94" width="105" height="8" rx="4"/><rect x="950" y="580" width="180" height="14" rx="7"/></g>
    <g filter="url(#shadow)"><path d="M212.5 330L300 330 L350.0,386.25 L400.0,273.75 L450.0,386.25 L500.0,273.75 L550.0,386.25 L600.0,273.75 L650.0,386.25 L700.0,273.75 L750.0,386.25 L800.0,273.75 L850.0,386.25 L900.0,273.75 L987.5 330" fill="none" stroke="#738692" stroke-width="35.0" stroke-linecap="round" stroke-linejoin="round"/><path d="M212.5 330L300 330" stroke="#e26d3d" stroke-width="7.5"/></g><path d="M260 190L880 190" stroke="#e26d3d" stroke-width="3" marker-start="url(#arrowStart)" marker-end="url(#arrow)" fill="none"/><text x="570.0" y="178.0" fill="#e26d3d" font-family="Arial,sans-serif" font-size="22" font-weight="700" text-anchor="middle">k</text><path d="M960 180v300" stroke="#e26d3d" stroke-width="10" marker-end="url(#arrow)"/>
    </svg>