<svg xmlns="http://www.w3.org/2000/svg" width="1200" height="680" viewBox="0 0 1200 680" >
    <defs>
    <linearGradient id="bg" x1="0" y1="0" x2="1" y2="1"><stop stop-color="#eef4f7"/><stop offset="1" stop-color="#dce9ef"/></linearGradient>
    <linearGradient id="metal" x1="0" y1="0" x2="1" y2="1"><stop stop-color="#f9fbfc"/><stop offset=".28" stop-color="#bcc9d2"/><stop offset=".55" stop-color="#748794"/><stop offset=".82" stop-color="#d7e0e5"/><stop offset="1" stop-color="#8ea0ab"/></linearGradient>
    <linearGradient id="accent" x1="0" y1="0" x2="1" y2="1"><stop stop-color="#3785a8"/><stop offset="1" stop-color="#3785a8" stop-opacity=".55"/></linearGradient>
    <pattern id="grid" width="42" height="42" patternUnits="userSpaceOnUse"><path d="M42 0H0V42" fill="none" stroke="#d07b3c" stroke-width="1" opacity=".22"/></pattern>
    <filter id="shadow" x="-30%" y="-30%" width="160%" height="180%"><feDropShadow dx="0" dy="16" stdDeviation="14" flood-color="#24313a" flood-opacity=".18"/></filter>
    <filter id="smallShadow" x="-30%" y="-30%" width="160%" height="180%"><feDropShadow dx="0" dy="7" stdDeviation="6" flood-color="#24313a" flood-opacity=".16"/></filter>
    <marker id="arrow" markerWidth="9" markerHeight="9" refX="7" refY="4.5" orient="auto" markerUnits="strokeWidth"><path d="M0 0L9 4.5L0 9z" fill="#3785a8"/></marker>
    <marker id="arrowStart" markerWidth="9" markerHeight="9" refX="2" refY="4.5" orient="auto" markerUnits="strokeWidth"><path d="M9 0L0 4.5L9 9z" fill="#3785a8"/></marker>
    </defs>
    <rect width="1200" height="680" fill="url(#bg)"/>
    <rect width="1200" height="680" fill="url(#grid)"/>
    <path d="M0 545C170 480 290 625 475 555S790 455 1200 545V680H0z" fill="#fff" opacity=".42"/>
    <circle cx="1020" cy="110" r="190" fill="#3785a8" opacity=".055"/>
    <circle cx="180" cy="580" r="150" fill="#3785a8" opacity=".035"/>
    <g fill="#3785a8" opacity=".10"><rect x="70" y="70" width="180" height="14" rx="7"/><rect x="70" y="94" width="105" height="8" rx="4"/><rect x="950" y="580" width="180" height="14" rx="7"/></g>
    <g filter="url(#shadow)"><circle cx="670" cy="345" r="190" fill="url(#metal)" stroke="#647682" stroke-width="4"/><circle cx="670" cy="345" r="148.20000000000002" fill="#e8eef1" stroke="#3785a8" stroke-width="8"/><circle cx="791.6" cy="345.0" r="16.2" fill="#f5f8f9" stroke="#667985" stroke-width="2"/><circle cx="775.3" cy="405.8" r="16.2" fill="#f5f8f9" stroke="#667985" stroke-width="2"/><circle cx="730.8" cy="450.3" r="16.2" fill="#f5f8f9" stroke="#667985" stroke-width="2"/><circle cx="670.0" cy="466.6" r="16.2" fill="#f5f8f9" stroke="#667985" stroke-width="2"/><circle cx="609.2" cy="450.3" r="16.2" fill="#f5f8f9" stroke="#667985" stroke-width="2"/><circle cx="564.7" cy="405.8" r="16.2" fill="#f5f8f9" stroke="#667985" stroke-width="2"/><circle cx="548.4" cy="345.0" r="16.2" fill="#f5f8f9" stroke="#667985" stroke-width="2"/><circle cx="564.7" cy="284.2" r="16.2" fill="#f5f8f9" stroke="#667985" stroke-width="2"/><circle cx="609.2" cy="239.7" r="16.2" fill="#f5f8f9" stroke="#667985" stroke-width="2"/><circle cx="670.0" cy="223.4" r="16.2" fill="#f5f8f9" stroke="#667985" stroke-width="2"/><circle cx="730.8" cy="239.7" r="16.2" fill="#f5f8f9" stroke="#667985" stroke-width="2"/><circle cx="775.3" cy="284.2" r="16.2" fill="#f5f8f9" stroke="#667985" stroke-width="2"/><circle cx="670" cy="345" r="81.7" fill="#f7f9fa" stroke="#687a86" stroke-width="8"/></g><path d="M260 160L520 160" stroke="#3785a8" stroke-width="3" marker-start="url(#arrowStart)" marker-end="url(#arrow)" fill="none"/><text x="390.0" y="148.0" fill="#3785a8" font-family="Arial,sans-serif" font-size="22" font-weight="700" text-anchor="middle">L₁₀</text><path d="M245 430h250" stroke="#6d8291" stroke-width="7" stroke-linecap="round"/><path d="M245 470h180" stroke="#6d8291" stroke-width="7" stroke-linecap="round"/>
    </svg>