<svg xmlns="http://www.w3.org/2000/svg" width="1200" height="680" viewBox="0 0 1200 680" >
    <defs>
    <linearGradient id="bg" x1="0" y1="0" x2="1" y2="1"><stop stop-color="#eef2f4"/><stop offset="1" stop-color="#dfe8ed"/></linearGradient>
    <linearGradient id="metal" x1="0" y1="0" x2="1" y2="1"><stop stop-color="#f9fbfc"/><stop offset=".28" stop-color="#bcc9d2"/><stop offset=".55" stop-color="#748794"/><stop offset=".82" stop-color="#d7e0e5"/><stop offset="1" stop-color="#8ea0ab"/></linearGradient>
    <linearGradient id="accent" x1="0" y1="0" x2="1" y2="1"><stop stop-color="#e26d3d"/><stop offset="1" stop-color="#e26d3d" stop-opacity=".55"/></linearGradient>
    <pattern id="grid" width="42" height="42" patternUnits="userSpaceOnUse"><path d="M42 0H0V42" fill="none" stroke="#6d8291" stroke-width="1" opacity=".22"/></pattern>
    <filter id="shadow" x="-30%" y="-30%" width="160%" height="180%"><feDropShadow dx="0" dy="16" stdDeviation="14" flood-color="#24313a" flood-opacity=".18"/></filter>
    <filter id="smallShadow" x="-30%" y="-30%" width="160%" height="180%"><feDropShadow dx="0" dy="7" stdDeviation="6" flood-color="#24313a" flood-opacity=".16"/></filter>
    <marker id="arrow" markerWidth="9" markerHeight="9" refX="7" refY="4.5" orient="auto" markerUnits="strokeWidth"><path d="M0 0L9 4.5L0 9z" fill="#e26d3d"/></marker>
    <marker id="arrowStart" markerWidth="9" markerHeight="9" refX="2" refY="4.5" orient="auto" markerUnits="strokeWidth"><path d="M9 0L0 4.5L9 9z" fill="#e26d3d"/></marker>
    </defs>
    <rect width="1200" height="680" fill="url(#bg)"/>
    <rect width="1200" height="680" fill="url(#grid)"/>
    <path d="M0 545C170 480 290 625 475 555S790 455 1200 545V680H0z" fill="#fff" opacity=".42"/>
    <circle cx="1020" cy="110" r="190" fill="#e26d3d" opacity=".055"/>
    <circle cx="180" cy="580" r="150" fill="#e26d3d" opacity=".035"/>
    <g fill="#e26d3d" opacity=".12"><circle cx="92" cy="92" r="8"/><circle cx="112" cy="92" r="3"/><circle cx="1080" cy="580" r="8"/><circle cx="1058" cy="580" r="3"/></g>
    <g filter="url(#shadow)"><polygon points="763.8,330.0 734.5,356.1 754.3,389.9 718.4,405.6 726.8,443.9 687.8,447.8 683.9,486.8 645.6,478.4 629.9,514.3 596.1,494.5 570.0,523.8 543.9,494.5 510.1,514.3 494.4,478.4 456.1,486.8 452.2,447.8 413.2,443.9 421.6,405.6 385.7,389.9 405.5,356.1 376.2,330.0 405.5,303.9 385.7,270.1 421.6,254.4 413.2,216.1 452.2,212.2 456.1,173.2 494.4,181.6 510.1,145.7 543.9,165.5 570.0,136.2 596.1,165.5 629.9,145.7 645.6,181.6 683.9,173.2 687.8,212.2 726.8,216.1 718.4,254.4 754.3,270.1 734.5,303.9" fill="url(#metal)" stroke="#617481" stroke-width="3"/><circle cx="570" cy="330" r="98.6" fill="#f4f7f8" stroke="#e26d3d" stroke-width="10"/><circle cx="570" cy="330" r="37.4" fill="#627580"/></g><g filter="url(#shadow)"><polygon points="1010.1,445.4 986.3,462.4 990.9,491.3 962.3,497.9 955.5,526.4 926.6,521.6 909.5,545.3 884.6,529.8 859.6,545.1 842.6,521.3 813.7,525.9 807.1,497.3 778.6,490.5 783.4,461.6 759.7,444.5 775.2,419.6 759.9,394.6 783.7,377.6 779.1,348.7 807.7,342.1 814.5,313.6 843.4,318.4 860.5,294.7 885.4,310.2 910.4,294.9 927.4,318.7 956.3,314.1 962.9,342.7 991.4,349.5 986.6,378.4 1010.3,395.5 994.8,420.4" fill="url(#metal)" stroke="#617481" stroke-width="3"/><circle cx="885" cy="420" r="64.96" fill="#f4f7f8" stroke="#e26d3d" stroke-width="10"/><circle cx="885" cy="420" r="24.64" fill="#627580"/></g><path d="M180 185L460 185" stroke="#e26d3d" stroke-width="3" marker-start="url(#arrowStart)" marker-end="url(#arrow)" fill="none"/><text x="320.0" y="173.0" fill="#e26d3d" font-family="Arial,sans-serif" font-size="22" font-weight="700" text-anchor="middle">m · z</text>
    </svg>