<svg xmlns="http://www.w3.org/2000/svg" width="1200" height="680" viewBox="0 0 1200 680" >
    <defs>
    <linearGradient id="bg" x1="0" y1="0" x2="1" y2="1"><stop stop-color="#f1f2f8"/><stop offset="1" stop-color="#dfe2f2"/></linearGradient>
    <linearGradient id="metal" x1="0" y1="0" x2="1" y2="1"><stop stop-color="#f9fbfc"/><stop offset=".28" stop-color="#bcc9d2"/><stop offset=".55" stop-color="#748794"/><stop offset=".82" stop-color="#d7e0e5"/><stop offset="1" stop-color="#8ea0ab"/></linearGradient>
    <linearGradient id="accent" x1="0" y1="0" x2="1" y2="1"><stop stop-color="#5d66d6"/><stop offset="1" stop-color="#5d66d6" stop-opacity=".55"/></linearGradient>
    <pattern id="grid" width="42" height="42" patternUnits="userSpaceOnUse"><path d="M42 0H0V42" fill="none" stroke="#7e99c7" stroke-width="1" opacity=".22"/></pattern>
    <filter id="shadow" x="-30%" y="-30%" width="160%" height="180%"><feDropShadow dx="0" dy="16" stdDeviation="14" flood-color="#24313a" flood-opacity=".18"/></filter>
    <filter id="smallShadow" x="-30%" y="-30%" width="160%" height="180%"><feDropShadow dx="0" dy="7" stdDeviation="6" flood-color="#24313a" flood-opacity=".16"/></filter>
    <marker id="arrow" markerWidth="9" markerHeight="9" refX="7" refY="4.5" orient="auto" markerUnits="strokeWidth"><path d="M0 0L9 4.5L0 9z" fill="#5d66d6"/></marker>
    <marker id="arrowStart" markerWidth="9" markerHeight="9" refX="2" refY="4.5" orient="auto" markerUnits="strokeWidth"><path d="M9 0L0 4.5L9 9z" fill="#5d66d6"/></marker>
    </defs>
    <rect width="1200" height="680" fill="url(#bg)"/>
    <rect width="1200" height="680" fill="url(#grid)"/>
    <path d="M0 545C170 480 290 625 475 555S790 455 1200 545V680H0z" fill="#fff" opacity=".42"/>
    <circle cx="1020" cy="110" r="190" fill="#5d66d6" opacity=".055"/>
    <circle cx="180" cy="580" r="150" fill="#5d66d6" opacity=".035"/>
    <g fill="#5d66d6" opacity=".12"><circle cx="92" cy="92" r="8"/><circle cx="112" cy="92" r="3"/><circle cx="1080" cy="580" r="8"/><circle cx="1058" cy="580" r="3"/></g>
    <g filter="url(#shadow)"><rect x="330" y="145" width="650" height="410" rx="26" fill="#f9fbfc" stroke="#687b88" stroke-width="4"/><rect x="330" y="145" width="650" height="62" rx="26" fill="#273744"/><circle cx="364" cy="176" r="8" fill="#e36d5b"/><circle cx="390" cy="176" r="8" fill="#e8b54d"/><circle cx="416" cy="176" r="8" fill="#55ad77"/><rect x="375" y="237" width="377.0" height="12" rx="6" fill="#718398" opacity="0.52"/><rect x="375" y="279" width="507.0" height="12" rx="6" fill="#5d66d6" opacity="0.9"/><rect x="375" y="321" width="279.5" height="12" rx="6" fill="#718398" opacity="0.52"/><rect x="375" y="363" width="442.00000000000006" height="12" rx="6" fill="#718398" opacity="0.52"/><rect x="375" y="405" width="338.0" height="12" rx="6" fill="#5d66d6" opacity="0.9"/><rect x="375" y="447" width="533.0" height="12" rx="6" fill="#718398" opacity="0.52"/><rect x="375" y="489" width="240.5" height="12" rx="6" fill="#718398" opacity="0.52"/></g><g fill="#5d66d6" stroke="#fff" stroke-width="5"><circle cx="215" cy="260" r="38"/><circle cx="250" cy="455" r="30"/><circle cx="1040" cy="270" r="32"/></g><path d="M230 296l18 129M975 315l45-28" stroke="#5d66d6" stroke-width="9"/>
    </svg>