<svg xmlns="http://www.w3.org/2000/svg" width="1200" height="680" viewBox="0 0 1200 680" >
    <defs>
    <linearGradient id="bg" x1="0" y1="0" x2="1" y2="1"><stop stop-color="#f5f3ef"/><stop offset="1" stop-color="#e9e3d8"/></linearGradient>
    <linearGradient id="metal" x1="0" y1="0" x2="1" y2="1"><stop stop-color="#f9fbfc"/><stop offset=".28" stop-color="#bcc9d2"/><stop offset=".55" stop-color="#748794"/><stop offset=".82" stop-color="#d7e0e5"/><stop offset="1" stop-color="#8ea0ab"/></linearGradient>
    <linearGradient id="accent" x1="0" y1="0" x2="1" y2="1"><stop stop-color="#d47b36"/><stop offset="1" stop-color="#d47b36" stop-opacity=".55"/></linearGradient>
    <pattern id="grid" width="42" height="42" patternUnits="userSpaceOnUse"><path d="M42 0H0V42" fill="none" stroke="#8394a0" stroke-width="1" opacity=".22"/></pattern>
    <filter id="shadow" x="-30%" y="-30%" width="160%" height="180%"><feDropShadow dx="0" dy="16" stdDeviation="14" flood-color="#24313a" flood-opacity=".18"/></filter>
    <filter id="smallShadow" x="-30%" y="-30%" width="160%" height="180%"><feDropShadow dx="0" dy="7" stdDeviation="6" flood-color="#24313a" flood-opacity=".16"/></filter>
    <marker id="arrow" markerWidth="9" markerHeight="9" refX="7" refY="4.5" orient="auto" markerUnits="strokeWidth"><path d="M0 0L9 4.5L0 9z" fill="#d47b36"/></marker>
    <marker id="arrowStart" markerWidth="9" markerHeight="9" refX="2" refY="4.5" orient="auto" markerUnits="strokeWidth"><path d="M9 0L0 4.5L9 9z" fill="#d47b36"/></marker>
    </defs>
    <rect width="1200" height="680" fill="url(#bg)"/>
    <rect width="1200" height="680" fill="url(#grid)"/>
    <path d="M0 545C170 480 290 625 475 555S790 455 1200 545V680H0z" fill="#fff" opacity=".42"/>
    <circle cx="1020" cy="110" r="190" fill="#d47b36" opacity=".055"/>
    <circle cx="180" cy="580" r="150" fill="#d47b36" opacity=".035"/>
    <g fill="#d47b36" opacity=".12"><circle cx="92" cy="92" r="8"/><circle cx="112" cy="92" r="3"/><circle cx="1080" cy="580" r="8"/><circle cx="1058" cy="580" r="3"/></g>
    <g filter="url(#shadow)"><rect x="230" y="185" width="520.0" height="340.0" rx="28" fill="#fbfcfd" stroke="#697c87" stroke-width="5"/><path d="M285.0 445.0L370.0 400.0L460.0 420.0L550.0 320.0L660.0 270.0" fill="none" stroke="#d47b36" stroke-width="13" stroke-linecap="round" stroke-linejoin="round"/><path d="M285.0 245.0v240M285.0 485.0h410" stroke="#9aa8b0" stroke-width="5"/><circle cx="660.0" cy="270.0" r="16" fill="#d47b36"/></g><g filter="url(#smallShadow)"><circle cx="840.0" cy="440.0" r="85" fill="#f0c15a" stroke="#b88a2d" stroke-width="7"/><circle cx="910.0" cy="360.0" r="65" fill="#e7b447" stroke="#b88a2d" stroke-width="7"/></g>
    </svg>