<svg xmlns="http://www.w3.org/2000/svg" width="1200" height="680" viewBox="0 0 1200 680" >
    <defs>
    <linearGradient id="bg" x1="0" y1="0" x2="1" y2="1"><stop stop-color="#eff2ef"/><stop offset="1" stop-color="#dfe7df"/></linearGradient>
    <linearGradient id="metal" x1="0" y1="0" x2="1" y2="1"><stop stop-color="#f9fbfc"/><stop offset=".28" stop-color="#bcc9d2"/><stop offset=".55" stop-color="#748794"/><stop offset=".82" stop-color="#d7e0e5"/><stop offset="1" stop-color="#8ea0ab"/></linearGradient>
    <linearGradient id="accent" x1="0" y1="0" x2="1" y2="1"><stop stop-color="#4e8a62"/><stop offset="1" stop-color="#4e8a62" stop-opacity=".55"/></linearGradient>
    <pattern id="grid" width="42" height="42" patternUnits="userSpaceOnUse"><path d="M42 0H0V42" fill="none" stroke="#d68b42" stroke-width="1" opacity=".22"/></pattern>
    <filter id="shadow" x="-30%" y="-30%" width="160%" height="180%"><feDropShadow dx="0" dy="16" stdDeviation="14" flood-color="#24313a" flood-opacity=".18"/></filter>
    <filter id="smallShadow" x="-30%" y="-30%" width="160%" height="180%"><feDropShadow dx="0" dy="7" stdDeviation="6" flood-color="#24313a" flood-opacity=".16"/></filter>
    <marker id="arrow" markerWidth="9" markerHeight="9" refX="7" refY="4.5" orient="auto" markerUnits="strokeWidth"><path d="M0 0L9 4.5L0 9z" fill="#4e8a62"/></marker>
    <marker id="arrowStart" markerWidth="9" markerHeight="9" refX="2" refY="4.5" orient="auto" markerUnits="strokeWidth"><path d="M9 0L0 4.5L9 9z" fill="#4e8a62"/></marker>
    </defs>
    <rect width="1200" height="680" fill="url(#bg)"/>
    <rect width="1200" height="680" fill="url(#grid)"/>
    <path d="M0 545C170 480 290 625 475 555S790 455 1200 545V680H0z" fill="#fff" opacity=".42"/>
    <circle cx="1020" cy="110" r="190" fill="#4e8a62" opacity=".055"/>
    <circle cx="180" cy="580" r="150" fill="#4e8a62" opacity=".035"/>
    <g fill="#4e8a62" opacity=".12"><circle cx="92" cy="92" r="8"/><circle cx="112" cy="92" r="3"/><circle cx="1080" cy="580" r="8"/><circle cx="1058" cy="580" r="3"/></g>
    <g transform="translate(505 270) scale(1.0)" filter="url(#shadow)"><path d="M0 220V40L105-5V65L225-5V65L340-5V220z" fill="#eef2f0" stroke="#60766a" stroke-width="5"/><rect x="55" y="-125" width="54" height="190" rx="8" fill="#c8d4ce" stroke="#60766a" stroke-width="5"/><rect x="270" y="-95" width="45" height="160" rx="8" fill="#dbe3df" stroke="#60766a" stroke-width="5"/><path d="M25 165h290" stroke="#4e8a62" stroke-width="12"/><rect x="35" y="95" width="45" height="42" rx="5" fill="#739e86" opacity=".72"/><rect x="105" y="95" width="45" height="42" rx="5" fill="#739e86" opacity=".72"/><rect x="175" y="95" width="45" height="42" rx="5" fill="#739e86" opacity=".72"/><rect x="245" y="95" width="45" height="42" rx="5" fill="#739e86" opacity=".72"/></g><g filter="url(#smallShadow)"><circle cx="320" cy="430" r="105" fill="#fbfcfd" stroke="#60766a" stroke-width="6"/><path d="M320 430l55-60" stroke="#4e8a62" stroke-width="13" stroke-linecap="round"/><path d="M275 470a65 65 0 1 0 0-80" fill="none" stroke="#d68b42" stroke-width="13"/></g>
    </svg>