<svg xmlns="http://www.w3.org/2000/svg" width="1200" height="680" viewBox="0 0 1200 680" >
    <defs>
    <linearGradient id="bg" x1="0" y1="0" x2="1" y2="1"><stop stop-color="#f5f1eb"/><stop offset="1" stop-color="#eadfd3"/></linearGradient>
    <linearGradient id="metal" x1="0" y1="0" x2="1" y2="1"><stop stop-color="#f9fbfc"/><stop offset=".28" stop-color="#bcc9d2"/><stop offset=".55" stop-color="#748794"/><stop offset=".82" stop-color="#d7e0e5"/><stop offset="1" stop-color="#8ea0ab"/></linearGradient>
    <linearGradient id="accent" x1="0" y1="0" x2="1" y2="1"><stop stop-color="#d46f45"/><stop offset="1" stop-color="#d46f45" stop-opacity=".55"/></linearGradient>
    <pattern id="grid" width="42" height="42" patternUnits="userSpaceOnUse"><path d="M42 0H0V42" fill="none" stroke="#7796af" stroke-width="1" opacity=".22"/></pattern>
    <filter id="shadow" x="-30%" y="-30%" width="160%" height="180%"><feDropShadow dx="0" dy="16" stdDeviation="14" flood-color="#24313a" flood-opacity=".18"/></filter>
    <filter id="smallShadow" x="-30%" y="-30%" width="160%" height="180%"><feDropShadow dx="0" dy="7" stdDeviation="6" flood-color="#24313a" flood-opacity=".16"/></filter>
    <marker id="arrow" markerWidth="9" markerHeight="9" refX="7" refY="4.5" orient="auto" markerUnits="strokeWidth"><path d="M0 0L9 4.5L0 9z" fill="#d46f45"/></marker>
    <marker id="arrowStart" markerWidth="9" markerHeight="9" refX="2" refY="4.5" orient="auto" markerUnits="strokeWidth"><path d="M9 0L0 4.5L9 9z" fill="#d46f45"/></marker>
    </defs>
    <rect width="1200" height="680" fill="url(#bg)"/>
    <rect width="1200" height="680" fill="url(#grid)"/>
    <path d="M0 545C170 480 290 625 475 555S790 455 1200 545V680H0z" fill="#fff" opacity=".42"/>
    <circle cx="1020" cy="110" r="190" fill="#d46f45" opacity=".055"/>
    <circle cx="180" cy="580" r="150" fill="#d46f45" opacity=".035"/>
    <g fill="#d46f45" opacity=".10"><rect x="70" y="70" width="180" height="14" rx="7"/><rect x="70" y="94" width="105" height="8" rx="4"/><rect x="950" y="580" width="180" height="14" rx="7"/></g>
    <g filter="url(#shadow)"><path d="M250 190h700" stroke="#8d4d37" stroke-width="26" stroke-linecap="round"/><path d="M250 255h700" stroke="#8d4d37" stroke-width="26" stroke-linecap="round"/><path d="M250 320h700" stroke="#8d4d37" stroke-width="26" stroke-linecap="round"/><path d="M250 385h700" stroke="#8d4d37" stroke-width="26" stroke-linecap="round"/><path d="M250 450h700" stroke="#8d4d37" stroke-width="26" stroke-linecap="round"/><path d="M290 180v300" stroke="#a45c40" stroke-width="10"/><path d="M410 180v300" stroke="#a45c40" stroke-width="10"/><path d="M530 180v300" stroke="#a45c40" stroke-width="10"/><path d="M650 180v300" stroke="#a45c40" stroke-width="10"/><path d="M770 180v300" stroke="#a45c40" stroke-width="10"/><path d="M890 180v300" stroke="#a45c40" stroke-width="10"/></g><path d="M240 535L955 535" stroke="#d46f45" stroke-width="3" marker-start="url(#arrowStart)" marker-end="url(#arrow)" fill="none"/><text x="597.5" y="523.0" fill="#d46f45" font-family="Arial,sans-serif" font-size="22" font-weight="700" text-anchor="middle">Ø12 / 15 cm</text>
    </svg>