<svg xmlns="http://www.w3.org/2000/svg" width="1200" height="680" viewBox="0 0 1200 680" >
    <defs>
    <linearGradient id="bg" x1="0" y1="0" x2="1" y2="1"><stop stop-color="#eef2f4"/><stop offset="1" stop-color="#dfe8ed"/></linearGradient>
    <linearGradient id="metal" x1="0" y1="0" x2="1" y2="1"><stop stop-color="#f9fbfc"/><stop offset=".28" stop-color="#bcc9d2"/><stop offset=".55" stop-color="#748794"/><stop offset=".82" stop-color="#d7e0e5"/><stop offset="1" stop-color="#8ea0ab"/></linearGradient>
    <linearGradient id="accent" x1="0" y1="0" x2="1" y2="1"><stop stop-color="#e26d3d"/><stop offset="1" stop-color="#e26d3d" stop-opacity=".55"/></linearGradient>
    <pattern id="grid" width="42" height="42" patternUnits="userSpaceOnUse"><path d="M42 0H0V42" fill="none" stroke="#6d8291" stroke-width="1" opacity=".22"/></pattern>
    <filter id="shadow" x="-30%" y="-30%" width="160%" height="180%"><feDropShadow dx="0" dy="16" stdDeviation="14" flood-color="#24313a" flood-opacity=".18"/></filter>
    <filter id="smallShadow" x="-30%" y="-30%" width="160%" height="180%"><feDropShadow dx="0" dy="7" stdDeviation="6" flood-color="#24313a" flood-opacity=".16"/></filter>
    <marker id="arrow" markerWidth="9" markerHeight="9" refX="7" refY="4.5" orient="auto" markerUnits="strokeWidth"><path d="M0 0L9 4.5L0 9z" fill="#e26d3d"/></marker>
    <marker id="arrowStart" markerWidth="9" markerHeight="9" refX="2" refY="4.5" orient="auto" markerUnits="strokeWidth"><path d="M9 0L0 4.5L9 9z" fill="#e26d3d"/></marker>
    </defs>
    <rect width="1200" height="680" fill="url(#bg)"/>
    <rect width="1200" height="680" fill="url(#grid)"/>
    <path d="M0 545C170 480 290 625 475 555S790 455 1200 545V680H0z" fill="#fff" opacity=".42"/>
    <circle cx="1020" cy="110" r="190" fill="#e26d3d" opacity=".055"/>
    <circle cx="180" cy="580" r="150" fill="#e26d3d" opacity=".035"/>
    <g fill="#e26d3d" opacity=".12"><circle cx="92" cy="92" r="8"/><circle cx="112" cy="92" r="3"/><circle cx="1080" cy="580" r="8"/><circle cx="1058" cy="580" r="3"/></g>
    <g transform="translate(620 260) rotate(-10) scale(1.15)" filter="url(#shadow)"><polygon points="-52,-30 0,-58 52,-30 52,30 0,58 -52,30" fill="url(#metal)" stroke="#617481" stroke-width="4"/><rect x="-21" y="52" width="42" height="190" rx="17" fill="url(#metal)" stroke="#657783" stroke-width="3"/><path d="M-20 92H20M-20 118H20M-20 144H20M-20 170H20M-20 196H20M-20 222H20" stroke="#e26d3d" stroke-width="5" opacity=".8"/></g><path d="M430 210A230 230 0 0 1 855 280" fill="none" stroke="#e26d3d" stroke-width="14" marker-end="url(#arrow)"/><circle cx="935" cy="420" r="90" fill="#fbfcfd" stroke="#6d7f89" stroke-width="6" filter="url(#smallShadow)"/><path d="M935 420l42-45" stroke="#e26d3d" stroke-width="12" stroke-linecap="round"/><circle cx="935" cy="420" r="12" fill="#e26d3d"/>
    </svg>