<svg xmlns="http://www.w3.org/2000/svg" width="1200" height="680" viewBox="0 0 1200 680" >
    <defs>
    <linearGradient id="bg" x1="0" y1="0" x2="1" y2="1"><stop stop-color="#eef4f7"/><stop offset="1" stop-color="#dce9ef"/></linearGradient>
    <linearGradient id="metal" x1="0" y1="0" x2="1" y2="1"><stop stop-color="#f9fbfc"/><stop offset=".28" stop-color="#bcc9d2"/><stop offset=".55" stop-color="#748794"/><stop offset=".82" stop-color="#d7e0e5"/><stop offset="1" stop-color="#8ea0ab"/></linearGradient>
    <linearGradient id="accent" x1="0" y1="0" x2="1" y2="1"><stop stop-color="#3785a8"/><stop offset="1" stop-color="#3785a8" stop-opacity=".55"/></linearGradient>
    <pattern id="grid" width="42" height="42" patternUnits="userSpaceOnUse"><path d="M42 0H0V42" fill="none" stroke="#d07b3c" stroke-width="1" opacity=".22"/></pattern>
    <filter id="shadow" x="-30%" y="-30%" width="160%" height="180%"><feDropShadow dx="0" dy="16" stdDeviation="14" flood-color="#24313a" flood-opacity=".18"/></filter>
    <filter id="smallShadow" x="-30%" y="-30%" width="160%" height="180%"><feDropShadow dx="0" dy="7" stdDeviation="6" flood-color="#24313a" flood-opacity=".16"/></filter>
    <marker id="arrow" markerWidth="9" markerHeight="9" refX="7" refY="4.5" orient="auto" markerUnits="strokeWidth"><path d="M0 0L9 4.5L0 9z" fill="#3785a8"/></marker>
    <marker id="arrowStart" markerWidth="9" markerHeight="9" refX="2" refY="4.5" orient="auto" markerUnits="strokeWidth"><path d="M9 0L0 4.5L9 9z" fill="#3785a8"/></marker>
    </defs>
    <rect width="1200" height="680" fill="url(#bg)"/>
    <rect width="1200" height="680" fill="url(#grid)"/>
    <path d="M0 545C170 480 290 625 475 555S790 455 1200 545V680H0z" fill="#fff" opacity=".42"/>
    <circle cx="1020" cy="110" r="190" fill="#3785a8" opacity=".055"/>
    <circle cx="180" cy="580" r="150" fill="#3785a8" opacity=".035"/>
    <g fill="#3785a8" opacity=".10"><rect x="70" y="70" width="180" height="14" rx="7"/><rect x="70" y="94" width="105" height="8" rx="4"/><rect x="950" y="580" width="180" height="14" rx="7"/></g>
    <g filter="url(#shadow)"><circle cx="650" cy="350" r="170" fill="#dce6ea" stroke="#657986" stroke-width="7"/><path d="M650 350c-90-105-150 10-68 55c-20 110 115 130 145 35c115 0 135-130 35-165c-15-115-155-100-170 0c-95 0-115 105-25 145" fill="#3785a8" opacity=".82"/><circle cx="650" cy="350" r="42" fill="#f8fafb" stroke="#657986" stroke-width="7"/><path d="M820 305h180v90H820M480 395H250v-90h230" fill="#e8eef1" stroke="#657986" stroke-width="16"/></g><path d="M230 260h230" stroke="#3785a8" stroke-width="10" marker-end="url(#arrow)"/><path d="M840 440h210" stroke="#3785a8" stroke-width="10" marker-end="url(#arrow)"/>
    </svg>