<svg xmlns="http://www.w3.org/2000/svg" width="1200" height="680" viewBox="0 0 1200 680" >
    <defs>
    <linearGradient id="bg" x1="0" y1="0" x2="1" y2="1"><stop stop-color="#f1f5ef"/><stop offset="1" stop-color="#e1eadc"/></linearGradient>
    <linearGradient id="metal" x1="0" y1="0" x2="1" y2="1"><stop stop-color="#f9fbfc"/><stop offset=".28" stop-color="#bcc9d2"/><stop offset=".55" stop-color="#748794"/><stop offset=".82" stop-color="#d7e0e5"/><stop offset="1" stop-color="#8ea0ab"/></linearGradient>
    <linearGradient id="accent" x1="0" y1="0" x2="1" y2="1"><stop stop-color="#4f9d62"/><stop offset="1" stop-color="#4f9d62" stop-opacity=".55"/></linearGradient>
    <pattern id="grid" width="42" height="42" patternUnits="userSpaceOnUse"><path d="M42 0H0V42" fill="none" stroke="#d7a83e" stroke-width="1" opacity=".22"/></pattern>
    <filter id="shadow" x="-30%" y="-30%" width="160%" height="180%"><feDropShadow dx="0" dy="16" stdDeviation="14" flood-color="#24313a" flood-opacity=".18"/></filter>
    <filter id="smallShadow" x="-30%" y="-30%" width="160%" height="180%"><feDropShadow dx="0" dy="7" stdDeviation="6" flood-color="#24313a" flood-opacity=".16"/></filter>
    <marker id="arrow" markerWidth="9" markerHeight="9" refX="7" refY="4.5" orient="auto" markerUnits="strokeWidth"><path d="M0 0L9 4.5L0 9z" fill="#4f9d62"/></marker>
    <marker id="arrowStart" markerWidth="9" markerHeight="9" refX="2" refY="4.5" orient="auto" markerUnits="strokeWidth"><path d="M9 0L0 4.5L9 9z" fill="#4f9d62"/></marker>
    </defs>
    <rect width="1200" height="680" fill="url(#bg)"/>
    <rect width="1200" height="680" fill="url(#grid)"/>
    <path d="M0 545C170 480 290 625 475 555S790 455 1200 545V680H0z" fill="#fff" opacity=".42"/>
    <circle cx="1020" cy="110" r="190" fill="#4f9d62" opacity=".055"/>
    <circle cx="180" cy="580" r="150" fill="#4f9d62" opacity=".035"/>
    <g fill="#4f9d62" opacity=".10"><rect x="70" y="70" width="180" height="14" rx="7"/><rect x="70" y="94" width="105" height="8" rx="4"/><rect x="950" y="580" width="180" height="14" rx="7"/></g>
    <g transform="skewX(-11)" filter="url(#shadow)"><rect x="220" y="275" width="361.0" height="199.5" rx="12" fill="#334b5a"/><rect x="230.0" y="285.0" width="64.6" height="53.199999999999996" fill="#507e9d" stroke="#d6e5ea" stroke-width="2.8499999999999996"/><rect x="300.3" y="285.0" width="64.6" height="53.199999999999996" fill="#507e9d" stroke="#d6e5ea" stroke-width="2.8499999999999996"/><rect x="370.6" y="285.0" width="64.6" height="53.199999999999996" fill="#507e9d" stroke="#d6e5ea" stroke-width="2.8499999999999996"/><rect x="440.9" y="285.0" width="64.6" height="53.199999999999996" fill="#507e9d" stroke="#d6e5ea" stroke-width="2.8499999999999996"/><rect x="511.2" y="285.0" width="64.6" height="53.199999999999996" fill="#507e9d" stroke="#d6e5ea" stroke-width="2.8499999999999996"/><rect x="230.0" y="343.9" width="64.6" height="53.199999999999996" fill="#507e9d" stroke="#d6e5ea" stroke-width="2.8499999999999996"/><rect x="300.3" y="343.9" width="64.6" height="53.199999999999996" fill="#507e9d" stroke="#d6e5ea" stroke-width="2.8499999999999996"/><rect x="370.6" y="343.9" width="64.6" height="53.199999999999996" fill="#507e9d" stroke="#d6e5ea" stroke-width="2.8499999999999996"/><rect x="440.9" y="343.9" width="64.6" height="53.199999999999996" fill="#507e9d" stroke="#d6e5ea" stroke-width="2.8499999999999996"/><rect x="511.2" y="343.9" width="64.6" height="53.199999999999996" fill="#507e9d" stroke="#d6e5ea" stroke-width="2.8499999999999996"/><rect x="230.0" y="402.8" width="64.6" height="53.199999999999996" fill="#507e9d" stroke="#d6e5ea" stroke-width="2.8499999999999996"/><rect x="300.3" y="402.8" width="64.6" height="53.199999999999996" fill="#507e9d" stroke="#d6e5ea" stroke-width="2.8499999999999996"/><rect x="370.6" y="402.8" width="64.6" height="53.199999999999996" fill="#507e9d" stroke="#d6e5ea" stroke-width="2.8499999999999996"/><rect x="440.9" y="402.8" width="64.6" height="53.199999999999996" fill="#507e9d" stroke="#d6e5ea" stroke-width="2.8499999999999996"/><rect x="511.2" y="402.8" width="64.6" height="53.199999999999996" fill="#507e9d" stroke="#d6e5ea" stroke-width="2.8499999999999996"/></g><path d="M386.75 484.5v100M296.5 579.5h210" stroke="#647984" stroke-width="11.399999999999999" stroke-linecap="round"/><circle cx="600.5" cy="247.0" r="68.39999999999999" fill="#efbe4a" opacity=".85"/><g stroke="#efbe4a" stroke-width="8" opacity=".7"><path d="M600.5 147.25v-40"/><path d="M600.5 346.75v40"/><path d="M500.75 247.0h-40"/><path d="M700.25 247.0h40"/></g><path d="M260 555L900 555" stroke="#4f9d62" stroke-width="3" marker-start="url(#arrowStart)" marker-end="url(#arrow)" fill="none"/><text x="580.0" y="543.0" fill="#4f9d62" font-family="Arial,sans-serif" font-size="22" font-weight="700" text-anchor="middle">kWh</text>
    </svg>